DBRep_DrawableShape

CASCADE Topology V1, (c) Matra-Datavision
Locations 0
Curve2ds 12
1 0 0.02 1 0 
2 0 0 1 0 -0 1 0.10000000000000001
1 6.2831853071795862 -0 0 1 
1 0 -0 0 1 
1 0 0 1 0 
2 0 0 1 0 -0 1 0.10000000000000001
2 0 0 1 0 -0 1 0.01
1 0 0.021000000000000001 1 0 
2 0 0 1 0 -0 1 0.01
1 0 0.0010000000000000009 1 0 
1 6.2831853071795862 -0 0 1 
1 0 -0 0 1 
Curves 6
2 0 0 -0.024999999999999998 0 0 1 1 0 -0 -0 1 0 0.10000000000000001
1 0.10000000000000001 -2.4492935982947065e-17 -0.044999999999999998 0 0 1 
2 0 0 -0.044999999999999998 0 0 1 1 0 -0 -0 1 0 0.10000000000000001
2 0 0 -0.024999999999999998 0 0 1 1 0 -0 -0 1 0 0.01
2 0 0 -0.044999999999999998 0 0 1 1 0 -0 -0 1 0 0.01
1 0.01 -2.4492935982947064e-18 -0.045999999999999999 0 0 1 
Polygon3D 0
PolygonOnTriangulations 0
Surfaces 4
2 0 0 -0.044999999999999998 0 0 1 1 0 -0 -0 1 0 0.10000000000000001
1 0 0 -0.024999999999999998 0 0 1 1 0 -0 -0 1 0 
1 0 0 -0.044999999999999998 0 0 1 1 0 -0 -0 1 0 
2 0 0 -0.045999999999999999 0 0 1 1 0 -0 -0 1 0 0.01
Triangulations 0

TShapes 23
Ve
1e-07
0.1 -2.44929359829471e-17 -0.025
0 0

0101101
*
Ve
1e-07
0.1 -2.44929359829471e-17 -0.045
0 0

0101101
*
Ve
1.00000000002449e-07
0.01 -2.44929359829471e-18 -0.025
0 0

0101101
*
Ve
1.00000000002449e-07
0.01 -2.44929359829471e-18 -0.045
0 0

0101101
*
Ed
 1e-07 1 1 0
1  1 0 0 6.28318530717959
2  1 1 0 0 6.28318530717959
2  2 2 0 0 6.28318530717959
0

0101000
+23 0 -23 0 *
Ed
 1e-07 1 1 0
1  2 0 0 0.02
3  3 4CN 1 0 0 0.02
0

0101000
-23 0 +22 0 *
Ed
 1e-07 1 1 0
1  3 0 0 6.28318530717959
2  5 1 0 0 6.28318530717959
2  6 3 0 0 6.28318530717959
0

0101000
+22 0 -22 0 *
Ed
 1e-07 1 1 0
1  4 0 0 6.28318530717959
2  7 2 0 0 6.28318530717959
2  8 4 0 0 6.28318530717959
0

0101000
+21 0 -21 0 *
Ed
 1e-07 1 1 0
1  5 0 0 6.28318530717959
2  9 3 0 0 6.28318530717959
2  10 4 0 0 6.28318530717959
0

0101000
+20 0 -20 0 *
Ed
 1e-07 1 1 0
1  6 0 0.001 0.021
3  11 12CN 4 0 0.001 0.021
0

0101000
+20 0 -21 0 *
Wi

0101100
-19 0 +18 0 +17 0 -18 0 *
Wi

0101100
+19 0 *
Wi

0101100
-16 0 *
Wi

0101100
+17 0 *
Wi

0101100
-15 0 *
Wi

0101100
-16 0 +14 0 +15 0 -14 0 *
Fa
0  1e-07 1 0

0111000
+13 0 *
Fa
0  1e-07 2 0

0111000
+12 0 +11 0 *
Fa
0  1e-07 3 0

0111000
+10 0 +9 0 *
Fa
0  1e-07 4 0

0111000
+8 0 *
Sh

0101100
+7 0 +6 0 -5 0 -4 0 *
So

0100000
+3 0 *
Co

1100000
-23 0 +22 0 -21 0 +20 0 -19 0 +18 0 +17 0 -16 0 +15 0 -14 0 
+13 0 +12 0 +11 0 -10 0 -9 0 -8 0 +7 0 +6 0 -5 0 -4 0 
+3 0 +2 0 *

+1 0 