SetFactory("OpenCASCADE");
Geometry.NumSubEdges = 500; // nicer display of curve
//General.NumThreads = 2;
Mesh.CharacteristicLengthMax = 0.005;
h = 0.005;

// Center Spline:
Point(1) = { 0.0, 0.15, 0.0, h };
Point(2) = { 0.0, 0.1322553013638209, 0.001931303555, h };
Point(3) = { 0.0, 0.11621274447369105, 0.00386260711, h };
Point(4) = { 0.0, 0.10178194684099015, 0.005793910666, h };
Point(5) = { 0.0, 0.08887252599907342, 0.007725214221, h };
Point(6) = { 0.0, 0.07739409945850949, 0.009656517776, h };
Point(7) = { 0.0, 0.06725628473774847, 0.011587821331, h };
Point(8) = { 0.0, 0.058368699355240514, 0.013519124886, h };
Point(9) = { 0.0, 0.05064096082571905, 0.015450428442, h };
Point(10) = { 0.0, 0.04398268667559788, 0.017381731997, h };
Point(11) = { 0.0, 0.03830349441903335, 0.019313035552, h };
Point(12) = { 0.0, 0.03351300157447553, 0.021244339107, h };
Point(13) = { 0.0, 0.02952082566037459, 0.023175642662, h };
Point(14) = { 0.0, 0.026236584193647782, 0.025106946218, h };
Point(15) = { 0.0, 0.0235698946961073, 0.027038249773, h };
Point(16) = { 0.0, 0.021430374684327267, 0.028969553328, h };
Point(17) = { 0.0, 0.019727641676757803, 0.030900856883, h };
Point(18) = { 0.0, 0.01837131319184902, 0.032832160438, h };
Point(19) = { 0.0, 0.01727100674753202, 0.034763463994, h };
Point(20) = { 0.0, 0.01633633987287368, 0.036694767549, h };
Point(21) = { 0.0, 0.015491853679633794, 0.038626071104, h };
Point(22) = { 0.0, 0.014720249033935578, 0.040557374659, h };
Point(23) = { 0.0, 0.01401839290689433, 0.042488678214, h };
Point(24) = { 0.0, 0.013383152269313128, 0.04441998177, h };
Point(25) = { 0.0, 0.012811394092963748, 0.046351285325, h };
Point(26) = { 0.0, 0.012299985348615587, 0.04828258888, h };
Point(27) = { 0.0, 0.011845793007383944, 0.050213892435, h };
Point(28) = { 0.0, 0.011445684040384105, 0.05214519599, h };
Point(29) = { 0.0, 0.011096525418563227, 0.054076499546, h };
Point(30) = { 0.0, 0.010795184113396826, 0.056007803101, h };
Point(31) = { 0.0, 0.010538527095806487, 0.057939106656, h };
Point(32) = { 0.0, 0.010323421336907503, 0.059870410211, h };
Point(33) = { 0.0, 0.010146733807815164, 0.061801713766, h };
Point(34) = { 0.0, 0.01000533147958014, 0.063733017322, h };
Point(35) = { 0.0, 0.009896081323462808, 0.065664320877, h };
Point(36) = { 0.0, 0.009815850310496376, 0.067595624432, h };
Point(37) = { 0.0, 0.009761505411796136, 0.069526927987, h };
Point(38) = { 0.0, 0.009729913598466373, 0.071458231543, h };
Point(39) = { 0.0, 0.009708992618425248, 0.073389535098, h };
Point(40) = { 0.0, 0.009709063473302847, 0.075320838653, h };
Point(41) = { 0.0, 0.009710229420597617, 0.077252142208, h };
Point(42) = { 0.0, 0.00971245991747821, 0.079183445763, h };
Point(43) = { 0.0, 0.009715581215919864, 0.081114749319, h };
Point(44) = { 0.0, 0.009719300082045459, 0.083046052874, h };
Point(45) = { 0.0, 0.009723222202527738, 0.084977356429, h };
Point(46) = { 0.0, 0.00972689810820495, 0.086908659984, h };
Point(47) = { 0.0, 0.00972987172818929, 0.088839963539, h };
Point(48) = { 0.0, 0.009731741466292276, 0.090771267095, h };
Point(49) = { 0.0, 0.009732453926706599, 0.09270257065, h };
Point(50) = { 0.0, 0.00973176399566555, 0.094633874205, h };
Point(51) = { 0.0, 0.009729315190324044, 0.09656517776, h };
Point(52) = { 0.0, 0.009725214427907417, 0.098496481315, h };
Point(53) = { 0.0, 0.00971979887544231, 0.100427784871, h };
Point(54) = { 0.0, 0.009713607696950568, 0.102359088426, h };
Point(55) = { 0.0, 0.00970733419354135, 0.104290391981, h };
Point(56) = { 0.0, 0.009701744621584059, 0.106221695536, h };
Point(57) = { 0.0, 0.00969758377639118, 0.108152999091, h };
Point(58) = { 0.0, 0.009695485321436116, 0.110084302647, h };
Point(59) = { 0.0, 0.009695880765820088, 0.112015606202, h };
Point(60) = { 0.0, 0.009698920933658943, 0.113946909757, h };
Point(61) = { 0.0, 0.00970446211992598, 0.115878213312, h };
Point(62) = { 0.0, 0.009712033994186478, 0.117809516867, h };
Point(63) = { 0.0, 0.009720903575952212, 0.119740820423, h };
Point(64) = { 0.0, 0.009730124567973229, 0.121672123978, h };
Point(65) = { 0.0, 0.009738646754557545, 0.123603427533, h };
Point(66) = { 0.0, 0.009745428420625183, 0.125534731088, h };
Point(67) = { 0.0, 0.0097495750869146, 0.127466034643, h };
Point(68) = { 0.0, 0.00975042841355702, 0.129397338199, h };
Point(69) = { 0.0, 0.009747703436527016, 0.131328641754, h };
Point(70) = { 0.0, 0.009741502234313186, 0.133259945309, h };
Point(71) = { 0.0, 0.009732346161407395, 0.135191248864, h };
Point(72) = { 0.0, 0.009721125890665667, 0.137122552419, h };
Point(73) = { 0.0, 0.009709010989195604, 0.139053855975, h };
Point(74) = { 0.0, 0.009697332076155595, 0.14098515953, h };
Point(75) = { 0.0, 0.00968743409009168, 0.142916463085, h };
Point(76) = { 0.0, 0.009680512331658741, 0.14484776664, h };
Point(77) = { 0.0, 0.00967748668247208, 0.146779070195, h };
Point(78) = { 0.0, 0.009678880327558387, 0.148710373751, h };
Point(79) = { 0.0, 0.009684738406541514, 0.150641677306, h };
Point(80) = { 0.0, 0.009694628224670914, 0.152572980861, h };
Point(81) = { 0.0, 0.009707616157963811, 0.154504284416, h };
Point(82) = { 0.0, 0.009722394993857476, 0.156435587971, h };
Point(83) = { 0.0, 0.009737382189709425, 0.158366891527, h };
Point(84) = { 0.0, 0.009750901660414648, 0.160298195082, h };
Point(85) = { 0.0, 0.009761361187802695, 0.162229498637, h };
Point(86) = { 0.0, 0.009767462018110847, 0.164160802192, h };
Point(87) = { 0.0, 0.009768318951846901, 0.166092105747, h };
Point(88) = { 0.0, 0.009763650467160288, 0.168023409303, h };
Point(89) = { 0.0, 0.009753767908080217, 0.169954712858, h };
Point(90) = { 0.0, 0.009739600160498801, 0.171886016413, h };
Point(91) = { 0.0, 0.009722589648777463, 0.173817319968, h };
Point(92) = { 0.0, 0.00970453920517237, 0.175748623523, h };
Point(93) = { 0.0, 0.009687423685035782, 0.177679927079, h };
Point(94) = { 0.0, 0.009673176864788349, 0.179611230634, h };
Point(95) = { 0.0, 0.009663457929705131, 0.181542534189, h };
Point(96) = { 0.0, 0.009659488481320741, 0.183473837744, h };
Point(97) = { 0.0, 0.009661894552825718, 0.185405141299, h };
Point(98) = { 0.0, 0.009670604035771092, 0.187336444855, h };
Point(99) = { 0.0, 0.009684880356571023, 0.18926774841, h };
Point(100) = { 0.0, 0.009703313407370918, 0.191199051965, h };
Point(101) = { 0.0, 0.00972401173455286, 0.19313035552, h };
Point(102) = { 0.0, 0.009744750163223874, 0.195061659075, h };
Point(103) = { 0.0, 0.009763224146772385, 0.196992962631, h };
Point(104) = { 0.0, 0.00977729235167769, 0.198924266186, h };
Point(105) = { 0.0, 0.009785258999377863, 0.200855569741, h };
Point(106) = { 0.0, 0.009786024895247372, 0.202786873296, h };
Point(107) = { 0.0, 0.009779326437300154, 0.204718176852, h };
Point(108) = { 0.0, 0.009765701908130692, 0.206649480407, h };
Point(109) = { 0.0, 0.009746499948041228, 0.208580783962, h };
Point(110) = { 0.0, 0.00972372138725566, 0.210512087517, h };
Point(111) = { 0.0, 0.009699797898757367, 0.212443391072, h };
Point(112) = { 0.0, 0.009677334395986349, 0.214374694628, h };
Point(113) = { 0.0, 0.009658830419840761, 0.216305998183, h };
Point(114) = { 0.0, 0.009646383624836979, 0.218237301738, h };
Point(115) = { 0.0, 0.009641490766204143, 0.220168605293, h };
Point(116) = { 0.0, 0.009644868784086864, 0.222099908848, h };
Point(117) = { 0.0, 0.009656343080252395, 0.224031212404, h };
Point(118) = { 0.0, 0.00967490176532386, 0.225962515959, h };
Point(119) = { 0.0, 0.00969868487878161, 0.227893819514, h };
Point(120) = { 0.0, 0.009725239694137388, 0.229825123069, h };
Point(121) = { 0.0, 0.009751712936517203, 0.231756426624, h };
Point(122) = { 0.0, 0.009775175355906638, 0.23368773018, h };
Point(123) = { 0.0, 0.00979292830205968, 0.235619033735, h };
Point(124) = { 0.0, 0.00980286435984517, 0.23755033729, h };
Point(125) = { 0.0, 0.009803627147087775, 0.239481640845, h };
Point(126) = { 0.0, 0.009794956660686796, 0.2414129444, h };
Point(127) = { 0.0, 0.009777638336162272, 0.243344247956, h };
Point(128) = { 0.0, 0.009753435600623831, 0.245275551511, h };
Point(129) = { 0.0, 0.009724908518233514, 0.247206855066, h };
Point(130) = { 0.0, 0.009695117731121822, 0.249138158621, h };
Point(131) = { 0.0, 0.00966730042108476, 0.251069462176, h };
Point(132) = { 0.0, 0.00964452340804468, 0.253000765732, h };
Point(133) = { 0.0, 0.009629328949929667, 0.254932069287, h };
Point(134) = { 0.0, 0.009623494091876548, 0.256863372842, h };
Point(135) = { 0.0, 0.009627884097166913, 0.258794676397, h };
Point(136) = { 0.0, 0.009642157554261628, 0.260725979952, h };
Point(137) = { 0.0, 0.009665018219541901, 0.262657283508, h };
Point(138) = { 0.0, 0.009694152067929703, 0.264588587063, h };
Point(139) = { 0.0, 0.009726543551827808, 0.266519890618, h };
Point(140) = { 0.0, 0.00975871504667555, 0.268451194173, h };
Point(141) = { 0.0, 0.009787119815588646, 0.270382497728, h };
Point(142) = { 0.0, 0.009808508301808398, 0.272313801284, h };
Point(143) = { 0.0, 0.009820373701414059, 0.274245104839, h };
Point(144) = { 0.0, 0.009821364493736141, 0.276176408394, h };
Point(145) = { 0.0, 0.009811152148284789, 0.278107711949, h };
Point(146) = { 0.0, 0.009790433461389404, 0.280039015504, h };
Point(147) = { 0.0, 0.009761303244746888, 0.28197031906, h };
Point(148) = { 0.0, 0.009726849743582846, 0.283901622615, h };
Point(149) = { 0.0, 0.00969077370695258, 0.28583292617, h };
Point(150) = { 0.0, 0.009657007888547713, 0.287764229725, h };
Point(151) = { 0.0, 0.009629282905516269, 0.28969553328, h };
Point(152) = { 0.0, 0.009610717015909622, 0.291626836836, h };
Point(153) = { 0.0, 0.009603485390594035, 0.293558140391, h };
Point(154) = { 0.0, 0.0096077471277646, 0.295489443946, h };
Point(155) = { 0.0, 0.009624355830563123, 0.297420747501, h };
Point(156) = { 0.0, 0.009652018056966279, 0.299352051056, h };
Point(157) = { 0.0, 0.009688122604400651, 0.301283354612, h };
Point(158) = { 0.0, 0.009729040026114683, 0.303214658167, h };
Point(159) = { 0.0, 0.00977042264662059, 0.305145961722, h };
Point(160) = { 0.0, 0.009807667003923035, 0.307077265277, h };
Point(161) = { 0.0, 0.009836392424067688, 0.309008568832, h };
Point(162) = { 0.0, 0.009853046832451213, 0.310939872388, h };
Point(163) = { 0.0, 0.009855569910004762, 0.312871175943, h };
Point(164) = { 0.0, 0.009843176093482457, 0.314802479498, h };
Point(165) = { 0.0, 0.009816470486369721, 0.316733783053, h };
Point(166) = { 0.0, 0.009777940238204207, 0.318665086608, h };
Point(167) = { 0.0, 0.009731558734543191, 0.320596390164, h };
Point(168) = { 0.0, 0.009682241555018378, 0.322527693719, h };
Point(169) = { 0.0, 0.009635347375498933, 0.324458997274, h };
Point(170) = { 0.0, 0.009596059616213097, 0.326390300829, h };
Point(171) = { 0.0, 0.009568886533207564, 0.328321604384, h };
Point(172) = { 0.0, 0.009557123747893186, 0.33025290794, h };
Point(173) = { 0.0, 0.009562565581065443, 0.332184211495, h };
Point(174) = { 0.0, 0.009585212622839578, 0.33411551505, h };
Point(175) = { 0.0, 0.009623186533600734, 0.336046818605, h };
Point(176) = { 0.0, 0.009672979731151514, 0.337978122161, h };
Point(177) = { 0.0, 0.009729615605506543, 0.339909425716, h };
Point(178) = { 0.0, 0.009787126981718004, 0.341840729271, h };
Point(179) = { 0.0, 0.009839138718991258, 0.343772032826, h };
Point(180) = { 0.0, 0.0098796110197975, 0.345703336381, h };
Point(181) = { 0.0, 0.009903543947272817, 0.347634639937, h };
Point(182) = { 0.0, 0.009907642206914697, 0.349565943492, h };
Point(183) = { 0.0, 0.009890919121750798, 0.351497247047, h };
Point(184) = { 0.0, 0.009854679530901366, 0.353428550602, h };
Point(185) = { 0.0, 0.00980259492273997, 0.355359854157, h };
Point(186) = { 0.0, 0.009740169379531441, 0.357291157713, h };
Point(187) = { 0.0, 0.009674086952391086, 0.359222461268, h };
Point(188) = { 0.0, 0.00961149032675734, 0.361153764823, h };
Point(189) = { 0.0, 0.009559177729767467, 0.363085068378, h };
Point(190) = { 0.0, 0.009522938556014944, 0.365016371933, h };
Point(191) = { 0.0, 0.009506907312603504, 0.366947675489, h };
Point(192) = { 0.0, 0.00951329753411238, 0.368878979044, h };
Point(193) = { 0.0, 0.00954196717557258, 0.370810282599, h };
Point(194) = { 0.0, 0.009590524091523958, 0.372741586154, h };
Point(195) = { 0.0, 0.009654462641319923, 0.374672889709, h };
Point(196) = { 0.0, 0.009727373850317902, 0.376604193265, h };
Point(197) = { 0.0, 0.009801644423627515, 0.37853549682, h };
Point(198) = { 0.0, 0.009869108914626824, 0.380466800375, h };
Point(199) = { 0.0, 0.009922016336560589, 0.38239810393, h };
Point(200) = { 0.0, 0.009953877403811482, 0.384329407485, h };
Point(201) = { 0.0, 0.009960565631537797, 0.386260711041, h };
Point(202) = { 0.0, 0.009940794593880949, 0.388192014596, h };
Point(203) = { 0.0, 0.009896110981819134, 0.390123318151, h };
Point(204) = { 0.0, 0.009831219132926249, 0.392054621706, h };
Point(205) = { 0.0, 0.00975304831105451, 0.393985925261, h };
Point(206) = { 0.0, 0.009670029851844703, 0.395917228817, h };
Point(207) = { 0.0, 0.00959108181375485, 0.397848532372, h };
Point(208) = { 0.0, 0.009524674413094217, 0.399779835927, h };
Point(209) = { 0.0, 0.009477960452462743, 0.401711139482, h };
Point(210) = { 0.0, 0.009456090902322224, 0.403642443037, h };
Point(211) = { 0.0, 0.00946052998391782, 0.405573746593, h };
Point(212) = { 0.0, 0.009492600043436767, 0.407505050148, h };
Point(213) = { 0.0, 0.009550334909793168, 0.409436353703, h };
Point(214) = { 0.0, 0.009628717362113093, 0.411367657258, h };
Point(215) = { 0.0, 0.009720170296100863, 0.413298960813, h };
Point(216) = { 0.0, 0.009815339790434374, 0.415230264369, h };
Point(217) = { 0.0, 0.009903821135522458, 0.417161567924, h };
Point(218) = { 0.0, 0.009975353166156003, 0.419092871479, h };
Point(219) = { 0.0, 0.010021003291229808, 0.421024175034, h };
Point(220) = { 0.0, 0.010034923475593791, 0.422955478589, h };
Point(221) = { 0.0, 0.010015443138414673, 0.424886782145, h };
Point(222) = { 0.0, 0.0099622847848553, 0.4268180857, h };
Point(223) = { 0.0, 0.0098805547203257, 0.428749389255, h };
Point(224) = { 0.0, 0.009778820464879833, 0.43068069281, h };
Point(225) = { 0.0, 0.009667911691147288, 0.432611996365, h };
Point(226) = { 0.0, 0.009559719756226707, 0.434543299921, h };
Point(227) = { 0.0, 0.009465826042735902, 0.436474603476, h };
Point(228) = { 0.0, 0.009396417999564616, 0.438405907031, h };
Point(229) = { 0.0, 0.009359370591751263, 0.440337210586, h };
Point(230) = { 0.0, 0.009359403699631886, 0.442268514141, h };
Point(231) = { 0.0, 0.009397666366625805, 0.444199817697, h };
Point(232) = { 0.0, 0.009471711334869645, 0.446131121252, h };
Point(233) = { 0.0, 0.009575283334564135, 0.448062424807, h };
Point(234) = { 0.0, 0.009698875258722256, 0.449993728362, h };
Point(235) = { 0.0, 0.009830244495648472, 0.451925031917, h };
Point(236) = { 0.0, 0.009955361070303734, 0.453856335473, h };
Point(237) = { 0.0, 0.010059904774007481, 0.455787639028, h };
Point(238) = { 0.0, 0.01013087316279186, 0.457718942583, h };
Point(239) = { 0.0, 0.010158612999300045, 0.459650246138, h };
Point(240) = { 0.0, 0.010138504342328164, 0.461581549694, h };
Point(241) = { 0.0, 0.010071890380319469, 0.463512853249, h };
Point(242) = { 0.0, 0.009965584032118054, 0.465444156804, h };
Point(243) = { 0.0, 0.009831215108210068, 0.467375460359, h };
Point(244) = { 0.0, 0.009683299600161647, 0.469306763914, h };
Point(245) = { 0.0, 0.009537538334591452, 0.47123806747, h };
Point(246) = { 0.0, 0.009409124321126987, 0.473169371025, h };
Point(247) = { 0.0, 0.009311268337480529, 0.47510067458, h };
Point(248) = { 0.0, 0.009254191114995172, 0.477031978135, h };
Point(249) = { 0.0, 0.00924448606441666, 0.47896328169, h };
Point(250) = { 0.0, 0.009283933495668658, 0.480894585246, h };
Point(251) = { 0.0, 0.009369907315175754, 0.482825888801, h };
Point(252) = { 0.0, 0.009495438487301344, 0.484757192356, h };
Point(253) = { 0.0, 0.009649396584420452, 0.486688495911, h };
Point(254) = { 0.0, 0.009816976283661906, 0.488619799466, h };
Point(255) = { 0.0, 0.009980948355550566, 0.490551103022, h };
Point(256) = { 0.0, 0.0101231030730822, 0.492482406577, h };
Point(257) = { 0.0, 0.010226213103168715, 0.494413710132, h };
Point(258) = { 0.0, 0.010276829025009055, 0.496345013687, h };
Point(259) = { 0.0, 0.010267490977659915, 0.498276317242, h };
Point(260) = { 0.0, 0.010198477188122251, 0.500207620798, h };
Point(261) = { 0.0, 0.010077119256683378, 0.502138924353, h };
Point(262) = { 0.0, 0.009917005779121399, 0.504070227908, h };
Point(263) = { 0.0, 0.009735729256598817, 0.506001531463, h };
Point(264) = { 0.0, 0.009552454146613293, 0.507932835018, h };
Point(265) = { 0.0, 0.009385851574819616, 0.509864138574, h };
Point(266) = { 0.0, 0.009252509956852957, 0.511795442129, h };
Point(267) = { 0.0, 0.009165571751326942, 0.513726745684, h };
Point(268) = { 0.0, 0.009133731299667476, 0.515658049239, h };
Point(269) = { 0.0, 0.009158691830327205, 0.517589352794, h };
Point(270) = { 0.0, 0.009241718172585608, 0.51952065635, h };
Point(271) = { 0.0, 0.009376906655804786, 0.521451959905, h };
Point(272) = { 0.0, 0.009553260650630523, 0.52338326346, h };
Point(273) = { 0.0, 0.009755011385315426, 0.525314567015, h };
Point(274) = { 0.0, 0.009962659247746973, 0.52724587057, h };
Point(275) = { 0.0, 0.010154269702453604, 0.529177174126, h };
Point(276) = { 0.0, 0.010307592668574452, 0.531108477681, h };
Point(277) = { 0.0, 0.010402990010688423, 0.533039781236, h };
Point(278) = { 0.0, 0.010427722557349762, 0.534971084791, h };
Point(279) = { 0.0, 0.01037869151132344, 0.536902388346, h };
Point(280) = { 0.0, 0.01025808546534558, 0.538833691902, h };
Point(281) = { 0.0, 0.010078837117405601, 0.540764995457, h };
Point(282) = { 0.0, 0.009860498531554233, 0.542696299012, h };
Point(283) = { 0.0, 0.009626153369319174, 0.544627602567, h };
Point(284) = { 0.0, 0.009399538633710973, 0.546558906122, h };
Point(285) = { 0.0, 0.009202805135654168, 0.548490209678, h };
Point(286) = { 0.0, 0.009054890353092952, 0.550421513233, h };
Point(287) = { 0.0, 0.008970302580466124, 0.552352816788, h };
Point(288) = { 0.0, 0.008958030514479754, 0.554284120343, h };
Point(289) = { 0.0, 0.009020368136890968, 0.556215423898, h };
Point(290) = { 0.0, 0.009154001602412636, 0.558146727454, h };
Point(291) = { 0.0, 0.00934947524931053, 0.560078031009, h };
Point(292) = { 0.0, 0.009591366443268147, 0.562009334564, h };
Point(293) = { 0.0, 0.009858833182746045, 0.563940638119, h };
Point(294) = { 0.0, 0.010126512314390696, 0.565871941674, h };
Point(295) = { 0.0, 0.010366109215660804, 0.56780324523, h };
Point(296) = { 0.0, 0.010549158954688243, 0.569734548785, h };
Point(297) = { 0.0, 0.010651159768514764, 0.57166585234, h };
Point(298) = { 0.0, 0.010656541827211426, 0.573597155895, h };
Point(299) = { 0.0, 0.0105639385620899, 0.57552845945, h };
Point(300) = { 0.0, 0.010383615525043188, 0.577459763006, h };
Point(301) = { 0.0, 0.010136039643882601, 0.579391066561, h };
Point(302) = { 0.0, 0.00984820242750226, 0.581322370116, h };
Point(303) = { 0.0, 0.00954943209548392, 0.583253673671, h };
Point(304) = { 0.0, 0.0092682085750188, 0.585184977226, h };
Point(305) = { 0.0, 0.009030064088535263, 0.587116280782, h };
Point(306) = { 0.0, 0.008856116482167022, 0.589047584337, h };
Point(307) = { 0.0, 0.008762062886976684, 0.590978887892, h };
Point(308) = { 0.0, 0.008758034266030827, 0.592910191447, h };
Point(309) = { 0.0, 0.00884435698527217, 0.594841495003, h };
Point(310) = { 0.0, 0.009014654156222757, 0.596772798558, h };
Point(311) = { 0.0, 0.009256885825592531, 0.598704102113, h };
Point(312) = { 0.0, 0.00955237939775867, 0.600635405668, h };
Point(313) = { 0.0, 0.009876973213339557, 0.602566709223, h };
Point(314) = { 0.0, 0.010201646663909762, 0.604498012779, h };
Point(315) = { 0.0, 0.0104938402826887, 0.606429316334, h };
Point(316) = { 0.0, 0.010720474608183497, 0.608360619889, h };
Point(317) = { 0.0, 0.010852607692752743, 0.610291923444, h };
Point(318) = { 0.0, 0.010870343592268874, 0.612223226999, h };
Point(319) = { 0.0, 0.010772084041140152, 0.614154530555, h };
Point(320) = { 0.0, 0.010572024651063768, 0.61608583411, h };
Point(321) = { 0.0, 0.010293307508932438, 0.618017137665, h };
Point(322) = { 0.0, 0.009966017870928094, 0.61994844122, h };
Point(323) = { 0.0, 0.009622500344796062, 0.621879744775, h };
Point(324) = { 0.0, 0.009293694074720079, 0.623811048331, h };
Point(325) = { 0.0, 0.00900724810794715, 0.625742351886, h };
Point(326) = { 0.0, 0.00878624229181079, 0.627673655441, h };
Point(327) = { 0.0, 0.008648676335499365, 0.629604958996, h };
Point(328) = { 0.0, 0.008605657520368742, 0.631536262551, h };
Point(329) = { 0.0, 0.008660382488540962, 0.633467566107, h };
Point(330) = { 0.0, 0.008807684028289662, 0.635398869662, h };
Point(331) = { 0.0, 0.00903768184558301, 0.637330173217, h };
Point(332) = { 0.0, 0.009333465437355715, 0.639261476772, h };
Point(333) = { 0.0, 0.0096730814174437, 0.641192780327, h };
Point(334) = { 0.0, 0.010029358442533975, 0.643124083883, h };
Point(335) = { 0.0, 0.010371346186935474, 0.645055387438, h };
Point(336) = { 0.0, 0.010665855688137427, 0.646986690993, h };
Point(337) = { 0.0, 0.010880760678206662, 0.648917994548, h };
Point(338) = { 0.0, 0.01098963614784817, 0.650849298103, h };
Point(339) = { 0.0, 0.01097849151470521, 0.652780601659, h };
Point(340) = { 0.0, 0.010851648055565466, 0.654711905214, h };
Point(341) = { 0.0, 0.01062426995431501, 0.656643208769, h };
Point(342) = { 0.0, 0.01032103130991127, 0.658574512324, h };
Point(343) = { 0.0, 0.009972068592995416, 0.660505815879, h };
Point(344) = { 0.0, 0.009608919931252987, 0.662437119435, h };
Point(345) = { 0.0, 0.009261722386468269, 0.66436842299, h };
Point(346) = { 0.0, 0.008957374265135288, 0.666299726545, h };
Point(347) = { 0.0, 0.008718665936876268, 0.6682310301, h };
Point(348) = { 0.0, 0.008563680792378141, 0.670162333655, h };
Point(349) = { 0.0, 0.008504019420786196, 0.672093637211, h };
Point(350) = { 0.0, 0.008544119105442666, 0.674024940766, h };
Point(351) = { 0.0, 0.008679052459850138, 0.675956244321, h };
Point(352) = { 0.0, 0.00889961629658935, 0.677887547876, h };
Point(353) = { 0.0, 0.00919059132628395, 0.679818851431, h };
Point(354) = { 0.0, 0.009531549476747978, 0.681750154987, h };
Point(355) = { 0.0, 0.009897662482051223, 0.683681458542, h };
Point(356) = { 0.0, 0.010260463638267454, 0.685612762097, h };
Point(357) = { 0.0, 0.010589072005175417, 0.687544065652, h };
Point(358) = { 0.0, 0.010852387297721392, 0.689475369207, h };
Point(359) = { 0.0, 0.011022675852161233, 0.691406672763, h };
Point(360) = { 0.0, 0.011080246735835455, 0.693337976318, h };
Point(361) = { 0.0, 0.011020832449551338, 0.695269279873, h };
Point(362) = { 0.0, 0.010853504651314613, 0.697200583428, h };
Point(363) = { 0.0, 0.010595415032430347, 0.699131886983, h };
Point(364) = { 0.0, 0.010271428223754334, 0.701063190539, h };
Point(365) = { 0.0, 0.009910305253415895, 0.702994494094, h };
Point(366) = { 0.0, 0.009541280784775577, 0.704925797649, h };
Point(367) = { 0.0, 0.00919199072200119, 0.706857101204, h };
Point(368) = { 0.0, 0.008887295203050883, 0.708788404759, h };
Point(369) = { 0.0, 0.008648419149080855, 0.710719708315, h };
Point(370) = { 0.0, 0.008492065694718129, 0.71265101187, h };
Point(371) = { 0.0, 0.008429420423123132, 0.714582315425, h };
Point(372) = { 0.0, 0.008463411155297907, 0.71651361898, h };
Point(373) = { 0.0, 0.008590016140894321, 0.718444922535, h };
Point(374) = { 0.0, 0.008801030261627043, 0.720376226091, h };
Point(375) = { 0.0, 0.009082976731898012, 0.722307529646, h };
Point(376) = { 0.0, 0.009417265565497504, 0.724238833201, h };
Point(377) = { 0.0, 0.00978165995994482, 0.726170136756, h };
Point(378) = { 0.0, 0.0101508792515378, 0.728101440312, h };
Point(379) = { 0.0, 0.010497358053239148, 0.730032743867, h };
Point(380) = { 0.0, 0.010792939800029013, 0.731964047422, h };
Point(381) = { 0.0, 0.011010742404051956, 0.733895350977, h };
Point(382) = { 0.0, 0.011129431118278379, 0.735826654532, h };
Point(383) = { 0.0, 0.011137393927689, 0.737757958088, h };
Point(384) = { 0.0, 0.011037813197228918, 0.739689261643, h };
Point(385) = { 0.0, 0.010840758513029384, 0.741620565198, h };
Point(386) = { 0.0, 0.01056337728797212, 0.743551868753, h };
Point(387) = { 0.0, 0.010228839797844133, 0.745483172308, h };
Point(388) = { 0.0, 0.009862906362942224, 0.747414475864, h };
Point(389) = { 0.0, 0.009491685332353304, 0.749345779419, h };
Point(390) = { 0.0, 0.009140094406930019, 0.751277082974, h };
Point(391) = { 0.0, 0.008831217900417626, 0.753208386529, h };
Point(392) = { 0.0, 0.008584745048188907, 0.755139690084, h };
Point(393) = { 0.0, 0.00841717702427321, 0.75707099364, h };
Point(394) = { 0.0, 0.00833968890398562, 0.759002297195, h };
Point(395) = { 0.0, 0.008356312628235685, 0.76093360075, h };
Point(396) = { 0.0, 0.008464089372026027, 0.762864904305, h };
Point(397) = { 0.0, 0.008656342516925335, 0.76479620786, h };
Point(398) = { 0.0, 0.008921439034889641, 0.766727511416, h };
Point(399) = { 0.0, 0.009243415711665514, 0.768658814971, h };
Point(400) = { 0.0, 0.009602894016037197, 0.770590118526, h };
Point(401) = { 0.0, 0.00997772375915855, 0.772521422081, h };
Point(402) = { 0.0, 0.010343738173526587, 0.774452725636, h };
Point(403) = { 0.0, 0.010675730765979963, 0.776384029192, h };
Point(404) = { 0.0, 0.010948794887298463, 0.778315332747, h };
Point(405) = { 0.0, 0.011140351673170592, 0.780246636302, h };
Point(406) = { 0.0, 0.011233218219044348, 0.782177939857, h };
Point(407) = { 0.0, 0.01122056073212705, 0.784109243412, h };
Point(408) = { 0.0, 0.011107570997199548, 0.786040546968, h };
Point(409) = { 0.0, 0.010903043316645546, 0.787971850523, h };
Point(410) = { 0.0, 0.010622488417454907, 0.789903154078, h };
Point(411) = { 0.0, 0.010286126287583106, 0.791834457633, h };
Point(412) = { 0.0, 0.009916656253726234, 0.793765761188, h };
Point(413) = { 0.0, 0.009537477818629635, 0.795697064744, h };
Point(414) = { 0.0, 0.009171486215535674, 0.797628368299, h };
Point(415) = { 0.0, 0.008840275339099861, 0.799559671854, h };
Point(416) = { 0.0, 0.008563461282240326, 0.801490975409, h };
Point(417) = { 0.0, 0.008357879348899328, 0.803422278964, h };
Point(418) = { 0.0, 0.008236568192312407, 0.80535358252, h };
Point(419) = { 0.0, 0.008207341054398255, 0.807284886075, h };
Point(420) = { 0.0, 0.00826921063040556, 0.80921618963, h };
Point(421) = { 0.0, 0.00841797133195388, 0.811147493185, h };
Point(422) = { 0.0, 0.008645298354802034, 0.81307879674, h };
Point(423) = { 0.0, 0.008938596641234505, 0.815010100296, h };
Point(424) = { 0.0, 0.009281688473101438, 0.816941403851, h };
Point(425) = { 0.0, 0.009655708930629855, 0.818872707406, h };
Point(426) = { 0.0, 0.010040079342198286, 0.820804010961, h };
Point(427) = { 0.0, 0.010412776558761114, 0.822735314516, h };
Point(428) = { 0.0, 0.010751121525498957, 0.824666618072, h };
Point(429) = { 0.0, 0.011033017095416682, 0.826597921627, h };
Point(430) = { 0.0, 0.011238436763860457, 0.828529225182, h };
Point(431) = { 0.0, 0.011351077109950272, 0.830460528737, h };
Point(432) = { 0.0, 0.011362857038583416, 0.832391832292, h };
Point(433) = { 0.0, 0.011277756724197228, 0.834323135848, h };
Point(434) = { 0.0, 0.011101714599425194, 0.836254439403, h };
Point(435) = { 0.0, 0.010846367460489066, 0.838185742958, h };
Point(436) = { 0.0, 0.010527596419368243, 0.840117046513, h };
Point(437) = { 0.0, 0.01016450745584658, 0.842048350068, h };
Point(438) = { 0.0, 0.009777544147897926, 0.843979653624, h };
Point(439) = { 0.0, 0.009387575416101265, 0.845910957179, h };
Point(440) = { 0.0, 0.009015101988593286, 0.847842260734, h };
Point(441) = { 0.0, 0.008679755477419206, 0.849773564289, h };
Point(442) = { 0.0, 0.0083996208506808, 0.851704867844, h };
Point(443) = { 0.0, 0.00819069399634179, 0.8536361714, h };
Point(444) = { 0.0, 0.008065348910320048, 0.855567474955, h };
Point(445) = { 0.0, 0.008031611947180828, 0.85749877851, h };
Point(446) = { 0.0, 0.008087862065851131, 0.859430082065, h };
Point(447) = { 0.0, 0.008230805863918816, 0.861361385621, h };
Point(448) = { 0.0, 0.008453135257645543, 0.863292689176, h };
Point(449) = { 0.0, 0.00874297512363157, 0.865223992731, h };
Point(450) = { 0.0, 0.009085684486518059, 0.867155296286, h };
Point(451) = { 0.0, 0.009464451800852475, 0.869086599841, h };
Point(452) = { 0.0, 0.009860959212451573, 0.871017903397, h };
Point(453) = { 0.0, 0.010255704258806736, 0.872949206952, h };
Point(454) = { 0.0, 0.010628723357694988, 0.874880510507, h };
Point(455) = { 0.0, 0.010960049518275077, 0.876811814062, h };
Point(456) = { 0.0, 0.011230437353497864, 0.878743117617, h };
Point(457) = { 0.0, 0.011423008055227649, 0.880674421173, h };
Point(458) = { 0.0, 0.01152496180133757, 0.882605724728, h };
Point(459) = { 0.0, 0.011530311014004677, 0.884537028283, h };
Point(460) = { 0.0, 0.011443811950726255, 0.886468331838, h };
Point(461) = { 0.0, 0.011270354547980187, 0.888399635393, h };
Point(462) = { 0.0, 0.011019197211080191, 0.890330938949, h };
Point(463) = { 0.0, 0.010703525809609194, 0.892262242504, h };
Point(464) = { 0.0, 0.010339253259391907, 0.894193546059, h };
Point(465) = { 0.0, 0.0099439152222179, 0.896124849614, h };
Point(466) = { 0.0, 0.009535827889578763, 0.898056153169, h };
Point(467) = { 0.0, 0.009133527435510942, 0.899987456725, h };
Point(468) = { 0.0, 0.008755391596713506, 0.90191876028, h };
Point(469) = { 0.0, 0.008419272825937671, 0.903850063835, h };
Point(470) = { 0.0, 0.008141956469577565, 0.90578136739, h };
Point(471) = { 0.0, 0.007938310723033432, 0.907712670945, h };
Point(472) = { 0.0, 0.007820134684283976, 0.909643974501, h };
Point(473) = { 0.0, 0.007794098965386576, 0.911575278056, h };
Point(474) = { 0.0, 0.007857807474532946, 0.913506581611, h };
Point(475) = { 0.0, 0.008008367178405095, 0.915437885166, h };
Point(476) = { 0.0, 0.00823795402032661, 0.917369188721, h };
Point(477) = { 0.0, 0.008535476275987438, 0.919300492277, h };
Point(478) = { 0.0, 0.00888739798830056, 0.921231795832, h };
Point(479) = { 0.0, 0.009277896996710522, 0.923163099387, h };
Point(480) = { 0.0, 0.00969039308712854, 0.925094402942, h };
Point(481) = { 0.0, 0.01010770408388327, 0.927025706497, h };
Point(482) = { 0.0, 0.010512132907143076, 0.928957010053, h };
Point(483) = { 0.0, 0.01088607539302027, 0.930888313608, h };
Point(484) = { 0.0, 0.011212343309480434, 0.932819617163, h };
Point(485) = { 0.0, 0.011474391698991806, 0.934750920718, h };
Point(486) = { 0.0, 0.011658607787488869, 0.936682224273, h };
Point(487) = { 0.0, 0.011754477818520017, 0.938613527829, h };
Point(488) = { 0.0, 0.01175778794158553, 0.940544831384, h };
Point(489) = { 0.0, 0.01167412245075979, 0.942476134939, h };
Point(490) = { 0.0, 0.011506417733009134, 0.944407438494, h };
Point(491) = { 0.0, 0.011262290114006318, 0.946338742049, h };
Point(492) = { 0.0, 0.010951438689693609, 0.948270045605, h };
Point(493) = { 0.0, 0.01058731136524172, 0.95020134916, h };
Point(494) = { 0.0, 0.010184002093813883, 0.952132652715, h };
Point(495) = { 0.0, 0.009757251163281225, 0.95406395627, h };
Point(496) = { 0.0, 0.009323136909598474, 0.955995259825, h };
Point(497) = { 0.0, 0.008898226679519084, 0.957926563381, h };
Point(498) = { 0.0, 0.00849921436991769, 0.959857866936, h };
Point(499) = { 0.0, 0.008143096002045819, 0.961789170491, h };
Point(500) = { 0.0, 0.007845750934255713, 0.963720474046, h };
Point(501) = { 0.0, 0.007622889755769278, 0.965651777601, h };
Point(502) = { 0.0, 0.007486190368295914, 0.967583081157, h };
Point(503) = { 0.0, 0.007444510283451297, 0.969514384712, h };
Point(504) = { 0.0, 0.007496215217442563, 0.971445688267, h };
Point(505) = { 0.0, 0.0076373372165653465, 0.973376991822, h };
Point(506) = { 0.0, 0.007861170235648435, 0.975308295377, h };
Point(507) = { 0.0, 0.008157269140622299, 0.977239598933, h };
Point(508) = { 0.0, 0.00851274350760573, 0.979170902488, h };
Point(509) = { 0.0, 0.008913025034870278, 0.981102206043, h };
Point(510) = { 0.0, 0.009342835548250624, 0.983033509598, h };
Point(511) = { 0.0, 0.009786775409731397, 0.984964813153, h };
Point(512) = { 0.0, 0.010229399666721062, 0.986896116709, h };
Point(513) = { 0.0, 0.010655316483731483, 0.988827420264, h };
Point(514) = { 0.0, 0.011049207416500046, 0.990758723819, h };
Point(515) = { 0.0, 0.011396234385207007, 0.992690027374, h };
Point(516) = { 0.0, 0.011682637588595342, 0.99462133093, h };
Point(517) = { 0.0, 0.011896194957343646, 0.996552634485, h };
Point(518) = { 0.0, 0.012027102273393458, 0.99848393804, h };
Point(519) = { 0.0, 0.01206787590333968, 1.000415241595, h };
Point(520) = { 0.0, 0.012017036689104879, 1.00234654515, h };
Point(521) = { 0.0, 0.011885253452731758, 1.004277848706, h };
Point(522) = { 0.0, 0.011677259184505292, 1.006209152261, h };
Point(523) = { 0.0, 0.011400474683729555, 1.008140455816, h };
Point(524) = { 0.0, 0.011064480170669065, 1.010071759371, h };
Point(525) = { 0.0, 0.010680455698766692, 1.012003062926, h };
Point(526) = { 0.0, 0.01026069072164671, 1.013934366482, h };
Point(527) = { 0.0, 0.009818226309659846, 1.015865670037, h };
Point(528) = { 0.0, 0.009366654182388101, 1.017796973592, h };
Point(529) = { 0.0, 0.008920089112374553, 1.019728277147, h };
Point(530) = { 0.0, 0.008493050831619841, 1.021659580702, h };
Point(531) = { 0.0, 0.008100431607522501, 1.023590884258, h };
Point(532) = { 0.0, 0.007757280153792397, 1.025522187813, h };
Point(533) = { 0.0, 0.0074782489137304375, 1.027453491368, h };
Point(534) = { 0.0, 0.007276626823841113, 1.029384794923, h };
Point(535) = { 0.0, 0.007163009995134044, 1.031316098478, h };
Point(536) = { 0.0, 0.007145493094080949, 1.033247402034, h };
Point(537) = { 0.0, 0.007222553055194273, 1.035178705589, h };
Point(538) = { 0.0, 0.007384366751258715, 1.037110009144, h };
Point(539) = { 0.0, 0.007622668613643963, 1.039041312699, h };
Point(540) = { 0.0, 0.007927037316883625, 1.040972616254, h };
Point(541) = { 0.0, 0.008283945712784208, 1.04290391981, h };
Point(542) = { 0.0, 0.008680037338073992, 1.044835223365, h };
Point(543) = { 0.0, 0.009101939319913136, 1.04676652692, h };
Point(544) = { 0.0, 0.009536158312795482, 1.048697830475, h };
Point(545) = { 0.0, 0.009969977619326133, 1.05062913403, h };
Point(546) = { 0.0, 0.0103909235382702, 1.052560437586, h };
Point(547) = { 0.0, 0.010787254762707645, 1.054491741141, h };
Point(548) = { 0.0, 0.01114758696454153, 1.056423044696, h };
Point(549) = { 0.0, 0.011461176327998437, 1.058354348251, h };
Point(550) = { 0.0, 0.011718838638845026, 1.060285651806, h };
Point(551) = { 0.0, 0.011912123317493237, 1.062216955362, h };
Point(552) = { 0.0, 0.01203469766789612, 1.064148258917, h };
Point(553) = { 0.0, 0.012082858912983024, 1.066079562472, h };
Point(554) = { 0.0, 0.012057384753448818, 1.068010866027, h };
Point(555) = { 0.0, 0.011964359620394018, 1.069942169582, h };
Point(556) = { 0.0, 0.011805741150876575, 1.071873473138, h };
Point(557) = { 0.0, 0.011586889524011237, 1.073804776693, h };
Point(558) = { 0.0, 0.011313695181620512, 1.075736080248, h };
Point(559) = { 0.0, 0.01099359325348565, 1.077667383803, h };
Point(560) = { 0.0, 0.010635390011558037, 1.079598687358, h };
Point(561) = { 0.0, 0.010247964302602264, 1.081529990914, h };
Point(562) = { 0.0, 0.00984155275600343, 1.083461294469, h };
Point(563) = { 0.0, 0.009426427326546888, 1.085392598024, h };
Point(564) = { 0.0, 0.009013495722011967, 1.087323901579, h };
Point(565) = { 0.0, 0.008613967317296243, 1.089255205134, h };
Point(566) = { 0.0, 0.008239881578502299, 1.09118650869, h };
Point(567) = { 0.0, 0.0079028654153234, 1.093117812245, h };
Point(568) = { 0.0, 0.007615078839808919, 1.0950491158, h };
Point(569) = { 0.0, 0.007387842799491864, 1.096980419355, h };
Point(570) = { 0.0, 0.007230461750654238, 1.09891172291, h };
Point(571) = { 0.0, 0.0071512193267226284, 1.100843026466, h };
Point(572) = { 0.0, 0.007152213284744797, 1.102774330021, h };
Point(573) = { 0.0, 0.007229303049401142, 1.104705633576, h };
Point(574) = { 0.0, 0.007378317055757745, 1.106636937131, h };
Point(575) = { 0.0, 0.007592774096708314, 1.108568240686, h };
Point(576) = { 0.0, 0.00786350417730787, 1.110499544242, h };
Point(577) = { 0.0, 0.008180368469510362, 1.112430847797, h };
Point(578) = { 0.0, 0.008532649622994349, 1.114362151352, h };
Point(579) = { 0.0, 0.008909574381856944, 1.116293454907, h };
Point(580) = { 0.0, 0.00930064176868284, 1.118224758463, h };
Point(581) = { 0.0, 0.00969563270474783, 1.120156062018, h };
Point(582) = { 0.0, 0.010084869023077142, 1.122087365573, h };
Point(583) = { 0.0, 0.010459182447115821, 1.124018669128, h };
Point(584) = { 0.0, 0.010809899766643443, 1.125949972683, h };
Point(585) = { 0.0, 0.011128894683838918, 1.127881276239, h };
Point(586) = { 0.0, 0.011408391040551977, 1.129812579794, h };
Point(587) = { 0.0, 0.011641905414939133, 1.131743883349, h };
Point(588) = { 0.0, 0.01182373769105986, 1.133675186904, h };
Point(589) = { 0.0, 0.011949345899403862, 1.135606490459, h };
Point(590) = { 0.0, 0.01201553835310379, 1.137537794015, h };
Point(591) = { 0.0, 0.012021042068125425, 1.13946909757, h };
Point(592) = { 0.0, 0.011969681644590148, 1.141400401125, h };
Point(593) = { 0.0, 0.011863644287970251, 1.14333170468, h };
Point(594) = { 0.0, 0.011705373208360093, 1.145263008235, h };
Point(595) = { 0.0, 0.011498453306781335, 1.147194311791, h };
Point(596) = { 0.0, 0.011247482369447434, 1.149125615346, h };
Point(597) = { 0.0, 0.010957928791714304, 1.151056918901, h };
Point(598) = { 0.0, 0.010635994161275123, 1.152988222456, h };
Point(599) = { 0.0, 0.010288496022089495, 1.154919526011, h };
Point(600) = { 0.0, 0.009922780817473387, 1.156850829567, h };
Point(601) = { 0.0, 0.009546670132033992, 1.158782133122, h };
Point(602) = { 0.0, 0.009168435288825296, 1.160713436677, h };
Point(603) = { 0.0, 0.00879678604016661, 1.162644740232, h };
Point(604) = { 0.0, 0.008440848276651943, 1.164576043787, h };
Point(605) = { 0.0, 0.008110093892917008, 1.166507347343, h };
Point(606) = { 0.0, 0.007814175831505914, 1.168438650898, h };
Point(607) = { 0.0, 0.007562619316786202, 1.170369954453, h };
Point(608) = { 0.0, 0.007364336819791551, 1.172301258008, h };
Point(609) = { 0.0, 0.007226979335502717, 1.174232561563, h };
Point(610) = { 0.0, 0.007156208452270684, 1.176163865119, h };
Point(611) = { 0.0, 0.007154441305513914, 1.178095168674, h };
Point(612) = { 0.0, 0.007218212512433939, 1.180026472229, h };
Point(613) = { 0.0, 0.0073446656553049, 1.181957775784, h };
Point(614) = { 0.0, 0.007528638391560558, 1.183889079339, h };
Point(615) = { 0.0, 0.007763098738651916, 1.185820382895, h };
Point(616) = { 0.0, 0.008040096767823076, 1.18775168645, h };
Point(617) = { 0.0, 0.008351085283175514, 1.189682990005, h };
Point(618) = { 0.0, 0.008687511195417809, 1.19161429356, h };
Point(619) = { 0.0, 0.009040484570524742, 1.193545597115, h };
Point(620) = { 0.0, 0.009401748880846696, 1.195476900671, h };
Point(621) = { 0.0, 0.009763434284962158, 1.197408204226, h };
Point(622) = { 0.0, 0.010118030391552636, 1.199339507781, h };
Point(623) = { 0.0, 0.01045838397599916, 1.201270811336, h };
Point(624) = { 0.0, 0.010777948219064791, 1.203202114891, h };
Point(625) = { 0.0, 0.01107059726351264, 1.205133418447, h };
Point(626) = { 0.0, 0.011330714648720786, 1.207064722002, h };
Point(627) = { 0.0, 0.01155294190917427, 1.208996025557, h };
Point(628) = { 0.0, 0.01173309046868245, 1.210927329112, h };
Point(629) = { 0.0, 0.011867658638735219, 1.212858632667, h };
Point(630) = { 0.0, 0.011953941344202123, 1.214789936223, h };
Point(631) = { 0.0, 0.011990085078426421, 1.216721239778, h };
Point(632) = { 0.0, 0.011943028881258796, 1.218652543333, h };
Point(633) = { 0.0, 0.011752359569587012, 1.220583846888, h };
Point(634) = { 0.0, 0.011452601476649331, 1.222515150443, h };
Point(635) = { 0.0, 0.011093232993288507, 1.224446453999, h };
Point(636) = { 0.0, 0.010721509434815276, 1.226377757554, h };
Point(637) = { 0.0, 0.01037510669927994, 1.228309061109, h };
Point(638) = { 0.0, 0.010080322709601337, 1.230240364664, h };
Point(639) = { 0.0, 0.009852552707914202, 1.232171668219, h };
Point(640) = { 0.0, 0.009696991367779106, 1.234102971775, h };
Point(641) = { 0.0, 0.00960898217177509, 1.23603427533, h };
Point(642) = { 0.0, 0.009574184695998992, 1.237965578885, h };
Point(643) = { 0.0, 0.0095691183, 1.23989688244, h };
Point(644) = { 0.0, 0.0095691183, 1.241828185995, h };
Point(645) = { 0.0, 0.0095691183, 1.243759489551, h };
Point(646) = { 0.0, 0.0095691183, 1.245690793106, h };
Point(647) = { 0.0, 0.0095691183, 1.247622096661, h };
Point(648) = { 0.0, 0.0095691183, 1.249553400216, h };
Point(649) = { 0.0, 0.0095691183, 1.251484703772, h };
Point(650) = { 0.0, 0.0095691183, 1.253416007327, h };
Point(651) = { 0.0, 0.0095691183, 1.255347310882, h };
Point(652) = { 0.0, 0.0095691183, 1.257278614437, h };
Point(653) = { 0.0, 0.0095691183, 1.259209917992, h };
Point(654) = { 0.0, 0.0095691183, 1.261141221548, h };
Point(655) = { 0.0, 0.0095691183, 1.263072525103, h };
Point(656) = { 0.0, 0.0095691183, 1.265003828658, h };
Point(657) = { 0.0, 0.009569118299999999, 1.266935132213, h };
Point(658) = { 0.0, 0.009569118299999999, 1.268866435768, h };
Point(659) = { 0.0, 0.009569118299999999, 1.270797739324, h };
Point(660) = { 0.0, 0.009586979157987311, 1.272729042879, h };
Point(661) = { 0.0, 0.009768740314861545, 1.274660346434, h };
Point(662) = { 0.0, 0.010158388552848903, 1.276591649989, h };
Point(663) = { 0.0, 0.010740247792395356, 1.278522953544, h };
Point(664) = { 0.0, 0.011356276865747845, 1.2804542571, h };
Point(665) = { 0.0, 0.011972305938781364, 1.282385560655, h };
Point(666) = { 0.0, 0.012588335011814883, 1.28431686421, h };
Point(667) = { 0.0, 0.013204364084848402, 1.286248167765, h };
Point(668) = { 0.0, 0.013782404798281488, 1.28817947132, h };
Point(669) = { 0.0, 0.014164699322402831, 1.290110774876, h };
Point(670) = { 0.0, 0.014339339431880394, 1.292042078431, h };
Point(671) = { 0.0, 0.014353677450000001, 1.293973381986, h };
Point(672) = { 0.0, 0.014353677450000001, 1.295904685541, h };
Point(673) = { 0.0, 0.014353677450000001, 1.297835989096, h };
Point(674) = { 0.0, 0.014353677450000001, 1.299767292652, h };
Point(675) = { 0.0, 0.014353677450000001, 1.301698596207, h };
Point(676) = { 0.0, 0.014275700112043122, 1.303629899762, h };
Point(677) = { 0.0, 0.013998684766979496, 1.305561203317, h };
Point(678) = { 0.0, 0.013509039226357995, 1.307492506872, h };
Point(679) = { 0.0, 0.012895201087792465, 1.309423810428, h };
Point(680) = { 0.0, 0.012279172014758945, 1.311355113983, h };
Point(681) = { 0.0, 0.011663142941725428, 1.313286417538, h };
Point(682) = { 0.0, 0.011047113868691909, 1.315217721093, h };
Point(683) = { 0.0, 0.010432125393382938, 1.317149024648, h };
Point(684) = { 0.0, 0.009935796899426684, 1.319080328204, h };
Point(685) = { 0.0, 0.00965235713465754, 1.321011631759, h };
Point(686) = { 0.0, 0.009569118299999999, 1.322942935314, h };
Point(687) = { 0.0, 0.009569118299999999, 1.324874238869, h };
Point(688) = { 0.0, 0.009569118299999999, 1.326805542424, h };
Point(689) = { 0.0, 0.009569118299999999, 1.32873684598, h };
Point(690) = { 0.0, 0.0095691183, 1.330668149535, h };
Point(691) = { 0.0, 0.0095691183, 1.33259945309, h };
Point(692) = { 0.0, 0.0095691183, 1.334530756645, h };
Point(693) = { 0.0, 0.0095691183, 1.3364620602, h };
Point(694) = { 0.0, 0.0095691183, 1.338393363756, h };
Point(695) = { 0.0, 0.0095691183, 1.340324667311, h };
Point(696) = { 0.0, 0.0095691183, 1.342255970866, h };
Point(697) = { 0.0, 0.0095691183, 1.344187274421, h };
Point(698) = { 0.0, 0.0095691183, 1.346118577976, h };
Point(699) = { 0.0, 0.0095691183, 1.348049881532, h };
Point(700) = { 0.0, 0.0095691183, 1.349981185087, h };
Point(701) = { 0.0, 0.0095691183, 1.351912488642, h };
Point(702) = { 0.0, 0.0095691183, 1.353843792197, h };
Point(703) = { 0.0, 0.009600708060808786, 1.355775095752, h };
Point(704) = { 0.0, 0.009651097705211255, 1.357706399308, h };
Point(705) = { 0.0, 0.009683399509097539, 1.359637702863, h };
Point(706) = { 0.0, 0.00970135953964093, 1.361569006418, h };
Point(707) = { 0.0, 0.009708723863983299, 1.363500309973, h };
Point(708) = { 0.0, 0.009709238549266513, 1.365431613528, h };
Point(709) = { 0.0, 0.009706649662630936, 1.367362917084, h };
Point(710) = { 0.0, 0.009704703271222739, 1.369294220639, h };
Point(711) = { 0.0, 0.009707145442182931, 1.371225524194, h };
Point(712) = { 0.0, 0.009717722242653382, 1.373156827749, h };
Point(713) = { 0.0, 0.009740179739775949, 1.375088131304, h };
Point(714) = { 0.0, 0.00977826400071692, 1.37701943486, h };
Point(715) = { 0.0, 0.009835721092580341, 1.378950738415, h };
Point(716) = { 0.0, 0.009916297082523428, 1.38088204197, h };
Point(717) = { 0.0, 0.010023738037688048, 1.382813345525, h };
Point(718) = { 0.0, 0.010161790025296128, 1.384744649081, h };
Point(719) = { 0.0, 0.010334199112348182, 1.386675952636, h };
Point(720) = { 0.0, 0.010544711366049316, 1.388607256191, h };
Point(721) = { 0.0, 0.010797072853541392, 1.390538559746, h };
Point(722) = { 0.0, 0.01109501473740358, 1.392469863301, h };
Point(723) = { 0.0, 0.011441903465768401, 1.394401166857, h };
Point(724) = { 0.0, 0.011840728167580007, 1.396332470412, h };
Point(725) = { 0.0, 0.012294460546032638, 1.398263773967, h };
Point(726) = { 0.0, 0.012806072304153853, 1.400195077522, h };
Point(727) = { 0.0, 0.013378535144971213, 1.402126381077, h };
Point(728) = { 0.0, 0.014014820771858767, 1.404057684633, h };
Point(729) = { 0.0, 0.014717900887186447, 1.405988988188, h };
Point(730) = { 0.0, 0.015490747194294493, 1.407920291743, h };
Point(731) = { 0.0, 0.016336331396210456, 1.409851595298, h };
Point(732) = { 0.0, 0.017271822730798504, 1.411782898853, h };
Point(733) = { 0.0, 0.018372679236365128, 1.413714202409, h };
Point(734) = { 0.0, 0.01972931564899302, 1.415645505964, h };
Point(735) = { 0.0, 0.021432146715922883, 1.417576809519, h };
Point(736) = { 0.0, 0.023571587183876027, 1.419508113074, h };
Point(737) = { 0.0, 0.026238051799573746, 1.421439416629, h };
Point(738) = { 0.0, 0.029521955311613165, 1.423370720185, h };
Point(739) = { 0.0, 0.0335137124633539, 1.42530202374, h };
Point(740) = { 0.0, 0.038303738003049925, 1.427233327295, h };
Point(741) = { 0.0, 0.04398244667742258, 1.42916463085, h };
Point(742) = { 0.0, 0.05064025323319314, 1.431095934405, h };
Point(743) = { 0.0, 0.05836757242137654, 1.433027237961, h };
Point(744) = { 0.0, 0.06725481898073088, 1.434958541516, h };
Point(745) = { 0.0, 0.07739240766169384, 1.436889845071, h };
Point(746) = { 0.0, 0.08887075321098677, 1.438821148626, h };
Point(747) = { 0.0, 0.10178027037533098, 1.440752452181, h };
Point(748) = { 0.0, 0.11621137390932948, 1.442683755737, h };
Point(749) = { 0.0, 0.13225447854479816, 1.444615059292, h };
Point(750) = { 0.0, 0.14999999903552888, 1.446546362847, h };

Spline(1) = { 1:750 }; 

Recursive Delete { Point{ 2:749 }; }
// Points making up the sweep face:
Point(751) = { -0.0093, 0.1593, 0.0, h };
Point(752) = { 0.0093, 0.1593, 0.0, h };
Point(753) = { 0.0, 0.1593, 0.0, h };

Line(2) = { 751, 752 };
Circle(3) = { 752, 753, 751};

Curve Loop(1) = { 2, 3 };
Plane Surface(1) = { 1 };
Rotate {{1, 0, 0}, { 0.0, 0.15, 0.0}, 1.4623847157580068} {Surface { 1 }; }

Recursive Delete { Point{ 753 }; }
Wire(2) = { 1 };
Extrude { Surface{ 1 }; } Using Wire { 2 }
Recursive Delete { Surface { 1 }; }
Recursive Delete { Curve{ 1 }; }
Extrude {0, 1, 0} { Surface{ 2 }; }
Extrude {0, 1, 0} { Surface{ 5 }; }

// Delete redundant volumes, surfaces, lines to form a new volume later
Delete { Volume{ 1, 2, 3 }; }
Delete { Surface{ 2, 3, 5, 6, 9 }; }
Delete { Curve{ 4, 8 }; }
Line(18) = { 763, 761 };
Line(19) = { 760, 762 };

Curve Loop(13) = {19, 16, 18, -12};
Plane Surface(12) = {13};
Curve Loop(14) = {18, -11, 7, 15};
Plane Surface(13) = {14};
Curve Loop(15) = {19, -14, -6, 10};
Plane Surface(14) = {15};
Surface Loop(4) = {13, 12, 14, 10, 11, 4, 7, 8};
Volume(1) = {4};
Delete { Surface{ 7, 10}; }
Box(2) = { -0.5, 0.05, -0.25, 1, 2, 1.946546362847 };

BooleanDifference{ Volume{1}; Delete; }{ Volume{2}; Delete; }

s() = Surface "*";
Physical Surface(1) = { s() };
Rotate {{0, 0, 1}, {0, 0, 0}, 1.5707963267948966} {Volume { 1 }; }

ReverseMesh Surface { s() };

Transfinite Surface { 2, 3 };
