SetFactory("OpenCASCADE");
Geometry.NumSubEdges = 500; // nicer display of curve
//General.NumThreads = 2;
Mesh.CharacteristicLengthMax = 0.005;
h = 0.005;

// Center Spline:
Point(1) = { 0.0, 0.15, 0.0, h };
Point(2) = { 0.0, 0.1322553013638209, 0.001931303555, h };
Point(3) = { 0.0, 0.11621274447369105, 0.00386260711, h };
Point(4) = { 0.0, 0.10178194684099015, 0.005793910666, h };
Point(5) = { 0.0, 0.08887252599907342, 0.007725214221, h };
Point(6) = { 0.0, 0.07739409945850949, 0.009656517776, h };
Point(7) = { 0.0, 0.06725628473774847, 0.011587821331, h };
Point(8) = { 0.0, 0.058368699355240514, 0.013519124886, h };
Point(9) = { 0.0, 0.05064096082571905, 0.015450428442, h };
Point(10) = { 0.0, 0.04398268667559788, 0.017381731997, h };
Point(11) = { 0.0, 0.03830349441903335, 0.019313035552, h };
Point(12) = { 0.0, 0.03351300157447553, 0.021244339107, h };
Point(13) = { 0.0, 0.02952082566037459, 0.023175642662, h };
Point(14) = { 0.0, 0.026236584193647782, 0.025106946218, h };
Point(15) = { 0.0, 0.0235698946961073, 0.027038249773, h };
Point(16) = { 0.0, 0.021430374684327267, 0.028969553328, h };
Point(17) = { 0.0, 0.019727641676757803, 0.030900856883, h };
Point(18) = { 0.0, 0.01837131319184902, 0.032832160438, h };
Point(19) = { 0.0, 0.01727100674753202, 0.034763463994, h };
Point(20) = { 0.0, 0.01633633987287368, 0.036694767549, h };
Point(21) = { 0.0, 0.015491853679633794, 0.038626071104, h };
Point(22) = { 0.0, 0.014720249033935578, 0.040557374659, h };
Point(23) = { 0.0, 0.01401839290689433, 0.042488678214, h };
Point(24) = { 0.0, 0.013383152269313128, 0.04441998177, h };
Point(25) = { 0.0, 0.012811394092963748, 0.046351285325, h };
Point(26) = { 0.0, 0.012299985348615587, 0.04828258888, h };
Point(27) = { 0.0, 0.011845793007383944, 0.050213892435, h };
Point(28) = { 0.0, 0.011445684040384105, 0.05214519599, h };
Point(29) = { 0.0, 0.011096525418563227, 0.054076499546, h };
Point(30) = { 0.0, 0.010795184113396826, 0.056007803101, h };
Point(31) = { 0.0, 0.010538527095806487, 0.057939106656, h };
Point(32) = { 0.0, 0.010323421336907503, 0.059870410211, h };
Point(33) = { 0.0, 0.010146733807815164, 0.061801713766, h };
Point(34) = { 0.0, 0.01000533147958014, 0.063733017322, h };
Point(35) = { 0.0, 0.009896081323462808, 0.065664320877, h };
Point(36) = { 0.0, 0.009815850310496376, 0.067595624432, h };
Point(37) = { 0.0, 0.009761505411796136, 0.069526927987, h };
Point(38) = { 0.0, 0.009729913598466373, 0.071458231543, h };
Point(39) = { 0.0, 0.009727454857140296, 0.073389535098, h };
Point(40) = { 0.0, 0.009727404557706201, 0.075320838653, h };
Point(41) = { 0.0, 0.00972625696797275, 0.077252142208, h };
Point(42) = { 0.0, 0.009724043542857474, 0.079183445763, h };
Point(43) = { 0.0, 0.009720939752691284, 0.081114749319, h };
Point(44) = { 0.0, 0.009717240657283736, 0.083046052874, h };
Point(45) = { 0.0, 0.009713341619149444, 0.084977356429, h };
Point(46) = { 0.0, 0.009709691741427367, 0.086908659984, h };
Point(47) = { 0.0, 0.009706745250395403, 0.088839963539, h };
Point(48) = { 0.0, 0.009704901065952811, 0.090771267095, h };
Point(49) = { 0.0, 0.009704220500361323, 0.09270257065, h };
Point(50) = { 0.0, 0.009704946591002808, 0.094633874205, h };
Point(51) = { 0.0, 0.00970742671138295, 0.09656517776, h };
Point(52) = { 0.0, 0.009711557075742632, 0.098496481315, h };
Point(53) = { 0.0, 0.009717005262866266, 0.100427784871, h };
Point(54) = { 0.0, 0.009723236403969422, 0.102359088426, h };
Point(55) = { 0.0, 0.009729558677160459, 0.104290391981, h };
Point(56) = { 0.0, 0.009735203224591408, 0.106221695536, h };
Point(57) = { 0.0, 0.009739418971658515, 0.108152999091, h };
Point(58) = { 0.0, 0.009741563788152979, 0.110084302647, h };
Point(59) = { 0.0, 0.009741148276295413, 0.112015606202, h };
Point(60) = { 0.0, 0.009738075209667603, 0.113946909757, h };
Point(61) = { 0.0, 0.009732494328801095, 0.115878213312, h };
Point(62) = { 0.0, 0.009724886161307051, 0.117809516867, h };
Point(63) = { 0.0, 0.009715993798402649, 0.119740820423, h };
Point(64) = { 0.0, 0.009706768738497977, 0.121672123978, h };
Point(65) = { 0.0, 0.009698258395313191, 0.123603427533, h };
Point(66) = { 0.0, 0.009691493866475198, 0.125534731088, h };
Point(67) = { 0.0, 0.009687355117594151, 0.127466034643, h };
Point(68) = { 0.0, 0.00968648639176797, 0.129397338199, h };
Point(69) = { 0.0, 0.009689168935852326, 0.131328641754, h };
Point(70) = { 0.0, 0.009695309504164902, 0.133259945309, h };
Point(71) = { 0.0, 0.009704403019816007, 0.135191248864, h };
Point(72) = { 0.0, 0.009715577730262305, 0.137122552419, h };
Point(73) = { 0.0, 0.009727677414087314, 0.139053855975, h };
Point(74) = { 0.0, 0.009739372314499756, 0.14098515953, h };
Point(75) = { 0.0, 0.009749304454918879, 0.142916463085, h };
Point(76) = { 0.0, 0.009756255819164674, 0.14484776664, h };
Point(77) = { 0.0, 0.009759284443141988, 0.146779070195, h };
Point(78) = { 0.0, 0.009757899887809571, 0.148710373751, h };
Point(79) = { 0.0, 0.009752014363312701, 0.150641677306, h };
Point(80) = { 0.0, 0.009742081029899565, 0.152572980861, h };
Point(81) = { 0.0, 0.009729063108345256, 0.154504284416, h };
Point(82) = { 0.0, 0.009714294036361804, 0.156435587971, h };
Point(83) = { 0.0, 0.009699367038754892, 0.158366891527, h };
Point(84) = { 0.0, 0.009685947370454506, 0.160298195082, h };
Point(85) = { 0.0, 0.0096755978146068, 0.162229498637, h };
Point(86) = { 0.0, 0.009669580702062495, 0.164160802192, h };
Point(87) = { 0.0, 0.0096687513706297, 0.166092105747, h };
Point(88) = { 0.0, 0.009673385570627413, 0.168023409303, h };
Point(89) = { 0.0, 0.00968319362570788, 0.169954712858, h };
Point(90) = { 0.0, 0.009697286003285135, 0.171886016413, h };
Point(91) = { 0.0, 0.009714262837611908, 0.173817319968, h };
Point(92) = { 0.0, 0.009732348760000748, 0.175748623523, h };
Point(93) = { 0.0, 0.009749567536939917, 0.177679927079, h };
Point(94) = { 0.0, 0.00976395434206135, 0.179611230634, h };
Point(95) = { 0.0, 0.009773800332394863, 0.181542534189, h };
Point(96) = { 0.0, 0.009777835555551926, 0.183473837744, h };
Point(97) = { 0.0, 0.009775357410115043, 0.185405141299, h };
Point(98) = { 0.0, 0.009766502942489062, 0.187336444855, h };
Point(99) = { 0.0, 0.0097520527387001, 0.18926774841, h };
Point(100) = { 0.0, 0.009733476425548778, 0.191199051965, h };
Point(101) = { 0.0, 0.009712715270936532, 0.19313035552, h };
Point(102) = { 0.0, 0.009692011901851037, 0.195061659075, h };
Point(103) = { 0.0, 0.009673646693128292, 0.196992962631, h };
Point(104) = { 0.0, 0.009659703123683123, 0.198924266186, h };
Point(105) = { 0.0, 0.009651808851602313, 0.200855569741, h };
Point(106) = { 0.0, 0.009651011591985453, 0.202786873296, h };
Point(107) = { 0.0, 0.009657567610623639, 0.204718176852, h };
Point(108) = { 0.0, 0.009670979568723485, 0.206649480407, h };
Point(109) = { 0.0, 0.009689970953578266, 0.208580783962, h };
Point(110) = { 0.0, 0.009712615865858058, 0.210512087517, h };
Point(111) = { 0.0, 0.009736528426401325, 0.212443391072, h };
Point(112) = { 0.0, 0.009759097974829689, 0.214374694628, h };
Point(113) = { 0.0, 0.009777768616654258, 0.216305998183, h };
Point(114) = { 0.0, 0.009790356710470368, 0.218237301738, h };
Point(115) = { 0.0, 0.009795287045008457, 0.220168605293, h };
Point(116) = { 0.0, 0.009791850256240046, 0.222099908848, h };
Point(117) = { 0.0, 0.009780196603004188, 0.224031212404, h };
Point(118) = { 0.0, 0.00976141302625681, 0.225962515959, h };
Point(119) = { 0.0, 0.009737458200333185, 0.227893819514, h };
Point(120) = { 0.0, 0.009710865341158737, 0.229825123069, h };
Point(121) = { 0.0, 0.009684513863231771, 0.231756426624, h };
Point(122) = { 0.0, 0.009661291284943955, 0.23368773018, h };
Point(123) = { 0.0, 0.009643801365488706, 0.235619033735, h };
Point(124) = { 0.0, 0.009634042189849201, 0.23755033729, h };
Point(125) = { 0.0, 0.009633264506656945, 0.239481640845, h };
Point(126) = { 0.0, 0.00964172075633142, 0.2414129444, h };
Point(127) = { 0.0, 0.009658716268970196, 0.243344247956, h };
Point(128) = { 0.0, 0.009682602148273867, 0.245275551511, h };
Point(129) = { 0.0, 0.009710934830837688, 0.247206855066, h };
Point(130) = { 0.0, 0.009740722821562086, 0.249138158621, h };
Point(131) = { 0.0, 0.009768717286371598, 0.251069462176, h };
Point(132) = { 0.0, 0.009791762476442449, 0.253000765732, h };
Point(133) = { 0.0, 0.009807183695538886, 0.254932069287, h };
Point(134) = { 0.0, 0.009813085609120602, 0.256863372842, h };
Point(135) = { 0.0, 0.009808647429812984, 0.258794676397, h };
Point(136) = { 0.0, 0.009794145570501888, 0.260725979952, h };
Point(137) = { 0.0, 0.009770990993886085, 0.262657283508, h };
Point(138) = { 0.0, 0.00974164548284555, 0.264588587063, h };
Point(139) = { 0.0, 0.009709242564359202, 0.266519890618, h };
Point(140) = { 0.0, 0.0096772959049628, 0.268451194173, h };
Point(141) = { 0.0, 0.009649287970543595, 0.270382497728, h };
Point(142) = { 0.0, 0.009628327702190435, 0.272313801284, h };
Point(143) = { 0.0, 0.009616762497486457, 0.274245104839, h };
Point(144) = { 0.0, 0.009615865890927982, 0.276176408394, h };
Point(145) = { 0.0, 0.009625951128423686, 0.278107711949, h };
Point(146) = { 0.0, 0.009646381988593812, 0.280039015504, h };
Point(147) = { 0.0, 0.009675230014992372, 0.28197031906, h };
Point(148) = { 0.0, 0.009709578403179847, 0.283901622615, h };
Point(149) = { 0.0, 0.0097458304590105, 0.28583292617, h };
Point(150) = { 0.0, 0.009780038931710075, 0.287764229725, h };
Point(151) = { 0.0, 0.009808343980158597, 0.28969553328, h };
Point(152) = { 0.0, 0.009827431775250835, 0.291626836836, h };
Point(153) = { 0.0, 0.009834947447428685, 0.293558140391, h };
Point(154) = { 0.0, 0.009830584022423912, 0.295489443946, h };
Point(155) = { 0.0, 0.009813590043082297, 0.297420747501, h };
Point(156) = { 0.0, 0.009785423123334306, 0.299352051056, h };
Point(157) = { 0.0, 0.009748924000299699, 0.301283354612, h };
Point(158) = { 0.0, 0.00970791939074977, 0.303214658167, h };
Point(159) = { 0.0, 0.009666833890416126, 0.305145961722, h };
Point(160) = { 0.0, 0.009630183334859259, 0.307077265277, h };
Point(161) = { 0.0, 0.00960212534832275, 0.309008568832, h };
Point(162) = { 0.0, 0.009585940368477684, 0.310939872388, h };
Point(163) = { 0.0, 0.009583467507226868, 0.312871175943, h };
Point(164) = { 0.0, 0.00959544795742338, 0.314802479498, h };
Point(165) = { 0.0, 0.009621436747264706, 0.316733783053, h };
Point(166) = { 0.0, 0.009659231477566182, 0.318665086608, h };
Point(167) = { 0.0, 0.009705174056728638, 0.320596390164, h };
Point(168) = { 0.0, 0.009754557460491838, 0.322527693719, h };
Point(169) = { 0.0, 0.009802026581877623, 0.324458997274, h };
Point(170) = { 0.0, 0.009842176655611682, 0.326390300829, h };
Point(171) = { 0.0, 0.00987013674227224, 0.328321604384, h };
Point(172) = { 0.0, 0.00988225416970017, 0.33025290794, h };
Point(173) = { 0.0, 0.00987656830013545, 0.332184211495, h };
Point(174) = { 0.0, 0.009853119394016991, 0.33411551505, h };
Point(175) = { 0.0, 0.009814101480784319, 0.336046818605, h };
Point(176) = { 0.0, 0.009763462459867336, 0.337978122161, h };
Point(177) = { 0.0, 0.009706562009966854, 0.339909425716, h };
Point(178) = { 0.0, 0.009649520061565659, 0.341840729271, h };
Point(179) = { 0.0, 0.009598557914903891, 0.343772032826, h };
Point(180) = { 0.0, 0.009559296428506019, 0.345703336381, h };
Point(181) = { 0.0, 0.009536222209003197, 0.347634639937, h };
Point(182) = { 0.0, 0.00953227014152237, 0.349565943492, h };
Point(183) = { 0.0, 0.009548348144829166, 0.351497247047, h };
Point(184) = { 0.0, 0.009583370923355738, 0.353428550602, h };
Point(185) = { 0.0, 0.0096341948646138, 0.355359854157, h };
Point(186) = { 0.0, 0.009695889314798277, 0.357291157713, h };
Point(187) = { 0.0, 0.00976214977943466, 0.359222461268, h };
Point(188) = { 0.0, 0.009825836068783053, 0.361153764823, h };
Point(189) = { 0.0, 0.009879763301601055, 0.363085068378, h };
Point(190) = { 0.0, 0.009917505165375817, 0.365016371933, h };
Point(191) = { 0.0, 0.009934305324215425, 0.366947675489, h };
Point(192) = { 0.0, 0.009927628614467846, 0.368878979044, h };
Point(193) = { 0.0, 0.009897711128520649, 0.370810282599, h };
Point(194) = { 0.0, 0.009847469674764674, 0.372741586154, h };
Point(195) = { 0.0, 0.009782151427937237, 0.374672889709, h };
Point(196) = { 0.0, 0.009708809186073674, 0.376604193265, h };
Point(197) = { 0.0, 0.009635325926617607, 0.37853549682, h };
Point(198) = { 0.0, 0.009569626271046676, 0.380466800375, h };
Point(199) = { 0.0, 0.00951878794770299, 0.38239810393, h };
Point(200) = { 0.0, 0.009488462745312273, 0.384329407485, h };
Point(201) = { 0.0, 0.00948212709435225, 0.386260711041, h };
Point(202) = { 0.0, 0.009500897056135956, 0.388192014596, h };
Point(203) = { 0.0, 0.009543625630982537, 0.390123318151, h };
Point(204) = { 0.0, 0.009606435135593555, 0.392054621706, h };
Point(205) = { 0.0, 0.00968331070537577, 0.393985925261, h };
Point(206) = { 0.0, 0.009766442346184073, 0.395917228817, h };
Point(207) = { 0.0, 0.009846955058124014, 0.397848532372, h };
Point(208) = { 0.0, 0.009915808175348378, 0.399779835927, h };
Point(209) = { 0.0, 0.009964870069575462, 0.401711139482, h };
Point(210) = { 0.0, 0.009988009953910854, 0.403642443037, h };
Point(211) = { 0.0, 0.009983260587741726, 0.405573746593, h };
Point(212) = { 0.0, 0.009949330569435965, 0.407505050148, h };
Point(213) = { 0.0, 0.009888908302619147, 0.409436353703, h };
Point(214) = { 0.0, 0.009808159738498452, 0.411367657258, h };
Point(215) = { 0.0, 0.009715742949995077, 0.413298960813, h };
Point(216) = { 0.0, 0.009621557828786823, 0.415230264369, h };
Point(217) = { 0.0, 0.00953575110741886, 0.417161567924, h };
Point(218) = { 0.0, 0.009467572922213025, 0.419092871479, h };
Point(219) = { 0.0, 0.009424586352764752, 0.421024175034, h };
Point(220) = { 0.0, 0.00941155182495227, 0.422955478589, h };
Point(221) = { 0.0, 0.009429872911829269, 0.424886782145, h };
Point(222) = { 0.0, 0.009480066694209898, 0.4268180857, h };
Point(223) = { 0.0, 0.009558315836136177, 0.428749389255, h };
Point(224) = { 0.0, 0.009657657919102, 0.43068069281, h };
Point(225) = { 0.0, 0.009768516112069919, 0.432611996365, h };
Point(226) = { 0.0, 0.009879333960511874, 0.434543299921, h };
Point(227) = { 0.0, 0.009977728662951948, 0.436474603476, h };
Point(228) = { 0.0, 0.010051843850055734, 0.438405907031, h };
Point(229) = { 0.0, 0.010091909419994938, 0.440337210586, h };
Point(230) = { 0.0, 0.01009191555886017, 0.442268514141, h };
Point(231) = { 0.0, 0.010050637847848445, 0.444199817697, h };
Point(232) = { 0.0, 0.009971743758585542, 0.446131121252, h };
Point(233) = { 0.0, 0.009863575664025749, 0.448062424807, h };
Point(234) = { 0.0, 0.009737733885892066, 0.449993728362, h };
Point(235) = { 0.0, 0.009607692843736103, 0.451925031917, h };
Point(236) = { 0.0, 0.009487253037928519, 0.453856335473, h };
Point(237) = { 0.0, 0.009389071946752028, 0.455787639028, h };
Point(238) = { 0.0, 0.00932365236044839, 0.457718942583, h };
Point(239) = { 0.0, 0.009298323995242434, 0.459650246138, h };
Point(240) = { 0.0, 0.009316584396919826, 0.461581549694, h };
Point(241) = { 0.0, 0.009377794415180827, 0.463512853249, h };
Point(242) = { 0.0, 0.00947733340162804, 0.465444156804, h };
Point(243) = { 0.0, 0.009606451359903942, 0.467375460359, h };
Point(244) = { 0.0, 0.009753003982365548, 0.469306763914, h };
Point(245) = { 0.0, 0.009902161810189903, 0.47123806747, h };
Point(246) = { 0.0, 0.01003764130856336, 0.473169371025, h };
Point(247) = { 0.0, 0.010143531779371499, 0.47510067458, h };
Point(248) = { 0.0, 0.010206341964274442, 0.477031978135, h };
Point(249) = { 0.0, 0.01021705924099248, 0.47896328169, h };
Point(250) = { 0.0, 0.010173439331211828, 0.480894585246, h };
Point(251) = { 0.0, 0.010079678557714014, 0.482825888801, h };
Point(252) = { 0.0, 0.009945992689412266, 0.484757192356, h };
Point(253) = { 0.0, 0.009787052361712782, 0.486688495911, h };
Point(254) = { 0.0, 0.009620014577974645, 0.488619799466, h };
Point(255) = { 0.0, 0.009462284076282367, 0.490551103022, h };
Point(256) = { 0.0, 0.00932989611837637, 0.492482406577, h };
Point(257) = { 0.0, 0.009236302111633484, 0.494413710132, h };
Point(258) = { 0.0, 0.009191068409523549, 0.496345013687, h };
Point(259) = { 0.0, 0.009199370352271023, 0.498276317242, h };
Point(260) = { 0.0, 0.009261308859660828, 0.500207620798, h };
Point(261) = { 0.0, 0.009372394756188137, 0.502138924353, h };
Point(262) = { 0.0, 0.009523312923631105, 0.504070227908, h };
Point(263) = { 0.0, 0.009700425895662114, 0.506001531463, h };
Point(264) = { 0.0, 0.009886605974192794, 0.507932835018, h };
Point(265) = { 0.0, 0.010062424627773221, 0.509864138574, h };
Point(266) = { 0.0, 0.010207912406990363, 0.511795442129, h };
Point(267) = { 0.0, 0.010305140035764099, 0.513726745684, h };
Point(268) = { 0.0, 0.01034117953874627, 0.515658049239, h };
Point(269) = { 0.0, 0.010312801536620371, 0.517589352794, h };
Point(270) = { 0.0, 0.010219745750875938, 0.51952065635, h };
Point(271) = { 0.0, 0.010071928715609923, 0.521451959905, h };
Point(272) = { 0.0, 0.009885613509470238, 0.52338326346, h };
Point(273) = { 0.0, 0.009680953243815607, 0.525314567015, h };
Point(274) = { 0.0, 0.009479171828193168, 0.52724587057, h };
Point(275) = { 0.0, 0.009300464437182812, 0.529177174126, h };
Point(276) = { 0.0, 0.009162353832879262, 0.531108477681, h };
Point(277) = { 0.0, 0.00907847146799668, 0.533039781236, h };
Point(278) = { 0.0, 0.009056884574423043, 0.534971084791, h };
Point(279) = { 0.0, 0.009099586786606004, 0.536902388346, h };
Point(280) = { 0.0, 0.009206434572538887, 0.538833691902, h };
Point(281) = { 0.0, 0.009370024539745751, 0.540764995457, h };
Point(282) = { 0.0, 0.009577365821404503, 0.542696299012, h };
Point(283) = { 0.0, 0.009810370499077545, 0.544627602567, h };
Point(284) = { 0.0, 0.01004671663533521, 0.546558906122, h };
Point(285) = { 0.0, 0.01026132960646952, 0.548490209678, h };
Point(286) = { 0.0, 0.010428818580816193, 0.550421513233, h };
Point(287) = { 0.0, 0.010526994945053277, 0.552352816788, h };
Point(288) = { 0.0, 0.010541212898264584, 0.554284120343, h };
Point(289) = { 0.0, 0.010468373441729793, 0.556215423898, h };
Point(290) = { 0.0, 0.010315738865225754, 0.558146727454, h };
Point(291) = { 0.0, 0.010100296015152622, 0.560078031009, h };
Point(292) = { 0.0, 0.00984563225096018, 0.562009334564, h };
Point(293) = { 0.0, 0.009578237450227506, 0.563940638119, h };
Point(294) = { 0.0, 0.009324412560273776, 0.565871941674, h };
Point(295) = { 0.0, 0.009108077391770499, 0.56780324523, h };
Point(296) = { 0.0, 0.00894926078166239, 0.569734548785, h };
Point(297) = { 0.0, 0.008862958874044655, 0.57166585234, h };
Point(298) = { 0.0, 0.008858152160350194, 0.573597155895, h };
Point(299) = { 0.0, 0.008936089717232825, 0.57552845945, h };
Point(300) = { 0.0, 0.009092065962144558, 0.577459763006, h };
Point(301) = { 0.0, 0.009315025190622444, 0.579391066561, h };
Point(302) = { 0.0, 0.009587674079810515, 0.581322370116, h };
Point(303) = { 0.0, 0.009887058583031063, 0.583253673671, h };
Point(304) = { 0.0, 0.010185412746201255, 0.585184977226, h };
Point(305) = { 0.0, 0.010451709418496212, 0.587116280782, h };
Point(306) = { 0.0, 0.010654678115307585, 0.589047584337, h };
Point(307) = { 0.0, 0.01076734462681197, 0.590978887892, h };
Point(308) = { 0.0, 0.010771702199913802, 0.592910191447, h };
Point(309) = { 0.0, 0.01066769498151226, 0.594841495003, h };
Point(310) = { 0.0, 0.010468486566323223, 0.596772798558, h };
Point(311) = { 0.0, 0.010196981799835404, 0.598704102113, h };
Point(312) = { 0.0, 0.009882861932855331, 0.600635405668, h };
Point(313) = { 0.0, 0.009557482051565687, 0.602566709223, h };
Point(314) = { 0.0, 0.009250830832930022, 0.604498012779, h };
Point(315) = { 0.0, 0.008989689262620356, 0.606429316334, h };
Point(316) = { 0.0, 0.008796100778391025, 0.608360619889, h };
Point(317) = { 0.0, 0.008686478746992405, 0.610291923444, h };
Point(318) = { 0.0, 0.008671473667006475, 0.612223226999, h };
Point(319) = { 0.0, 0.008752241822104169, 0.614154530555, h };
Point(320) = { 0.0, 0.008921534285160602, 0.61608583411, h };
Point(321) = { 0.0, 0.009167337656149292, 0.618017137665, h };
Point(322) = { 0.0, 0.00947136589987001, 0.61994844122, h };
Point(323) = { 0.0, 0.009809522944515602, 0.621879744775, h };
Point(324) = { 0.0, 0.010153099893969536, 0.623811048331, h };
Point(325) = { 0.0, 0.010469702603695102, 0.625742351886, h };
Point(326) = { 0.0, 0.010725881127896391, 0.627673655441, h };
Point(327) = { 0.0, 0.01089076646057589, 0.629604958996, h };
Point(328) = { 0.0, 0.010942677019830722, 0.631536262551, h };
Point(329) = { 0.0, 0.01087555280530345, 0.633467566107, h };
Point(330) = { 0.0, 0.010699771174787528, 0.635398869662, h };
Point(331) = { 0.0, 0.010435159968675578, 0.637330173217, h };
Point(332) = { 0.0, 0.010110596611938564, 0.639261476772, h };
Point(333) = { 0.0, 0.00975783991172353, 0.641192780327, h };
Point(334) = { 0.0, 0.009408540433957101, 0.643124083883, h };
Point(335) = { 0.0, 0.009091636000397365, 0.645055387438, h };
Point(336) = { 0.0, 0.008832084965568634, 0.646986690993, h };
Point(337) = { 0.0, 0.008649927191601623, 0.648917994548, h };
Point(338) = { 0.0, 0.008559574454381961, 0.650849298103, h };
Point(339) = { 0.0, 0.008568098417781233, 0.652780601659, h };
Point(340) = { 0.0, 0.008673348430597538, 0.654711905214, h };
Point(341) = { 0.0, 0.008867692573229372, 0.656643208769, h };
Point(342) = { 0.0, 0.009137509311053883, 0.658574512324, h };
Point(343) = { 0.0, 0.00946356286601285, 0.660505815879, h };
Point(344) = { 0.0, 0.009821703611038964, 0.662437119435, h };
Point(345) = { 0.0, 0.010183434094223457, 0.66436842299, h };
Point(346) = { 0.0, 0.010517339786533497, 0.666299726545, h };
Point(347) = { 0.0, 0.010791048279908785, 0.6682310301, h };
Point(348) = { 0.0, 0.010974487720854494, 0.670162333655, h };
Point(349) = { 0.0, 0.011045784510412514, 0.672093637211, h };
Point(350) = { 0.0, 0.01099670955144554, 0.674024940766, h };
Point(351) = { 0.0, 0.010836351516817617, 0.675956244321, h };
Point(352) = { 0.0, 0.010582167045074328, 0.677887547876, h };
Point(353) = { 0.0, 0.010260104211055623, 0.679818851431, h };
Point(354) = { 0.0, 0.009900229739000815, 0.681750154987, h };
Point(355) = { 0.0, 0.00953309802454336, 0.683681458542, h };
Point(356) = { 0.0, 0.009187476858939128, 0.685612762097, h };
Point(357) = { 0.0, 0.008888944102089477, 0.687544065652, h };
Point(358) = { 0.0, 0.008659035684002196, 0.689475369207, h };
Point(359) = { 0.0, 0.0085143555784871, 0.691406672763, h };
Point(360) = { 0.0, 0.008465597139540223, 0.693337976318, h };
Point(361) = { 0.0, 0.008514840710215573, 0.695269279873, h };
Point(362) = { 0.0, 0.008657277031684785, 0.697200583428, h };
Point(363) = { 0.0, 0.00888342725053815, 0.699131886983, h };
Point(364) = { 0.0, 0.009178135823016699, 0.701063190539, h };
Point(365) = { 0.0, 0.00952128874199903, 0.702994494094, h };
Point(366) = { 0.0, 0.00988879216692224, 0.704925797649, h };
Point(367) = { 0.0, 0.010253368731879159, 0.706857101204, h };
Point(368) = { 0.0, 0.010585601962451249, 0.708788404759, h };
Point(369) = { 0.0, 0.010855854763294117, 0.710719708315, h };
Point(370) = { 0.0, 0.011037416917604749, 0.71265101187, h };
Point(371) = { 0.0, 0.011110638497546076, 0.714582315425, h };
Point(372) = { 0.0, 0.011069692758776114, 0.71651361898, h };
Point(373) = { 0.0, 0.010922067110807307, 0.718444922535, h };
Point(374) = { 0.0, 0.01068209514942192, 0.720376226091, h };
Point(375) = { 0.0, 0.010371614931795696, 0.722307529646, h };
Point(376) = { 0.0, 0.010017262371378384, 0.724238833201, h };
Point(377) = { 0.0, 0.00964673674196177, 0.726170136756, h };
Point(378) = { 0.0, 0.009286959170822211, 0.728101440312, h };
Point(379) = { 0.0, 0.0089627347502091, 0.730032743867, h };
Point(380) = { 0.0, 0.00869577822515431, 0.731964047422, h };
Point(381) = { 0.0, 0.0085043617781679, 0.733895350977, h };
Point(382) = { 0.0, 0.00840149114560532, 0.735826654532, h };
Point(383) = { 0.0, 0.008393764577450702, 0.737757958088, h };
Point(384) = { 0.0, 0.00847943702564183, 0.739689261643, h };
Point(385) = { 0.0, 0.008652613744692174, 0.741620565198, h };
Point(386) = { 0.0, 0.008902676164890305, 0.743551868753, h };
Point(387) = { 0.0, 0.009213843188080632, 0.745483172308, h };
Point(388) = { 0.0, 0.009566495456147746, 0.747414475864, h };
Point(389) = { 0.0, 0.009937948378451834, 0.749345779419, h };
Point(390) = { 0.0, 0.010303075285528939, 0.751277082974, h };
Point(391) = { 0.0, 0.010635138647514301, 0.753208386529, h };
Point(392) = { 0.0, 0.01090791981567831, 0.755139690084, h };
Point(393) = { 0.0, 0.011097255026023826, 0.75707099364, h };
Point(394) = { 0.0, 0.011185301627008514, 0.759002297195, h };
Point(395) = { 0.0, 0.011165171840149653, 0.76093360075, h };
Point(396) = { 0.0, 0.011042253962290305, 0.762864904305, h };
Point(397) = { 0.0, 0.010827201902750563, 0.76479620786, h };
Point(398) = { 0.0, 0.0105375052874319, 0.766727511416, h };
Point(399) = { 0.0, 0.010195349566253724, 0.768658814971, h };
Point(400) = { 0.0, 0.00982510652762792, 0.770590118526, h };
Point(401) = { 0.0, 0.00945151730475238, 0.772521422081, h };
Point(402) = { 0.0, 0.009098301355647669, 0.774452725636, h };
Point(403) = { 0.0, 0.008787306217269206, 0.776384029192, h };
Point(404) = { 0.0, 0.008537829839893348, 0.778315332747, h };
Point(405) = { 0.0, 0.008365881637602888, 0.780246636302, h };
Point(406) = { 0.0, 0.008282880752619966, 0.782177939857, h };
Point(407) = { 0.0, 0.00829304623503516, 0.784109243412, h };
Point(408) = { 0.0, 0.008393392367705983, 0.786040546968, h };
Point(409) = { 0.0, 0.008578228777640636, 0.787971850523, h };
Point(410) = { 0.0, 0.00883675898781274, 0.789903154078, h };
Point(411) = { 0.0, 0.009153996255575234, 0.791834457633, h };
Point(412) = { 0.0, 0.009511689158834645, 0.793765761188, h };
Point(413) = { 0.0, 0.009889090490090473, 0.795697064744, h };
Point(414) = { 0.0, 0.01026359072840446, 0.797628368299, h };
Point(415) = { 0.0, 0.01061142423638416, 0.799559671854, h };
Point(416) = { 0.0, 0.010908750341389495, 0.801490975409, h };
Point(417) = { 0.0, 0.01113335607577912, 0.803422278964, h };
Point(418) = { 0.0, 0.011266976433254094, 0.80535358252, h };
Point(419) = { 0.0, 0.01129823420628895, 0.807284886075, h };
Point(420) = { 0.0, 0.011228984306471918, 0.80921618963, h };
Point(421) = { 0.0, 0.011065692275669779, 0.811147493185, h };
Point(422) = { 0.0, 0.010819855338769556, 0.81307879674, h };
Point(423) = { 0.0, 0.010508175928541568, 0.815010100296, h };
Point(424) = { 0.0, 0.010150887764264484, 0.816941403851, h };
Point(425) = { 0.0, 0.009769892539616689, 0.818872707406, h };
Point(426) = { 0.0, 0.009387181804732218, 0.820804010961, h };
Point(427) = { 0.0, 0.009024288158964194, 0.822735314516, h };
Point(428) = { 0.0, 0.008701485777564813, 0.824666618072, h };
Point(429) = { 0.0, 0.008437069752102977, 0.826597921627, h };
Point(430) = { 0.0, 0.008246667543954223, 0.828529225182, h };
Point(431) = { 0.0, 0.00814256654617832, 0.830460528737, h };
Point(432) = { 0.0, 0.008130567993646738, 0.832391832292, h };
Point(433) = { 0.0, 0.008208327200630014, 0.834323135848, h };
Point(434) = { 0.0, 0.008371722685281678, 0.836254439403, h };
Point(435) = { 0.0, 0.0086116354036891, 0.838185742958, h };
Point(436) = { 0.0, 0.008915310874050432, 0.840117046513, h };
Point(437) = { 0.0, 0.009266686613243431, 0.842048350068, h };
Point(438) = { 0.0, 0.00964763154102806, 0.843979653624, h };
Point(439) = { 0.0, 0.010038366785808628, 0.845910957179, h };
Point(440) = { 0.0, 0.010418039371894542, 0.847842260734, h };
Point(441) = { 0.0, 0.01076526912591145, 0.849773564289, h };
Point(442) = { 0.0, 0.011059139975674604, 0.851704867844, h };
Point(443) = { 0.0, 0.011280324065521066, 0.8536361714, h };
Point(444) = { 0.0, 0.011413352551431728, 0.855567474955, h };
Point(445) = { 0.0, 0.011448053492334975, 0.85749877851, h };
Point(446) = { 0.0, 0.011387093574429932, 0.859430082065, h };
Point(447) = { 0.0, 0.01123542490213171, 0.861361385621, h };
Point(448) = { 0.0, 0.011001790001751728, 0.863292689176, h };
Point(449) = { 0.0, 0.010700070892053729, 0.865223992731, h };
Point(450) = { 0.0, 0.010347046227503221, 0.867155296286, h };
Point(451) = { 0.0, 0.009961367629543607, 0.869086599841, h };
Point(452) = { 0.0, 0.009562531027166886, 0.871017903397, h };
Point(453) = { 0.0, 0.009170248361564971, 0.872949206952, h };
Point(454) = { 0.0, 0.00880371246541881, 0.874880510507, h };
Point(455) = { 0.0, 0.008481275997977909, 0.876811814062, h };
Point(456) = { 0.0, 0.00822003888055567, 0.878743117617, h };
Point(457) = { 0.0, 0.008034639503809045, 0.880674421173, h };
Point(458) = { 0.0, 0.00793603468698662, 0.882605724728, h };
Point(459) = { 0.0, 0.00792939184364751, 0.884537028283, h };
Point(460) = { 0.0, 0.008011847787617403, 0.886468331838, h };
Point(461) = { 0.0, 0.008179316042629616, 0.888399635393, h };
Point(462) = { 0.0, 0.008423275850501828, 0.890330938949, h };
Point(463) = { 0.0, 0.00873155818306323, 0.892262242504, h };
Point(464) = { 0.0, 0.009089371589292744, 0.894193546059, h };
Point(465) = { 0.0, 0.009480168916531712, 0.896124849614, h };
Point(466) = { 0.0, 0.009886253345722584, 0.898056153169, h };
Point(467) = { 0.0, 0.010289178875459682, 0.899987456725, h };
Point(468) = { 0.0, 0.010670097688460604, 0.90191876028, h };
Point(469) = { 0.0, 0.011010237995146754, 0.903850063835, h };
Point(470) = { 0.0, 0.011291666326547238, 0.90578136739, h };
Point(471) = { 0.0, 0.011498396240817197, 0.907712670945, h };
Point(472) = { 0.0, 0.011617754497666596, 0.909643974501, h };
Point(473) = { 0.0, 0.011642535327515035, 0.911575278056, h };
Point(474) = { 0.0, 0.01157674707929697, 0.913506581611, h };
Point(475) = { 0.0, 0.011424170038892909, 0.915437885166, h };
Point(476) = { 0.0, 0.011192468824591954, 0.917369188721, h };
Point(477) = { 0.0, 0.010892635651761125, 0.919300492277, h };
Point(478) = { 0.0, 0.010538250361314332, 0.921231795832, h };
Point(479) = { 0.0, 0.010145304173376675, 0.923163099387, h };
Point(480) = { 0.0, 0.009730559360629358, 0.925094402942, h };
Point(481) = { 0.0, 0.009311274901586557, 0.927025706497, h };
Point(482) = { 0.0, 0.008905057031229057, 0.928957010053, h };
Point(483) = { 0.0, 0.008529291773691335, 0.930888313608, h };
Point(484) = { 0.0, 0.008200949838141654, 0.932819617163, h };
Point(485) = { 0.0, 0.007936498964535563, 0.934750920718, h };
Point(486) = { 0.0, 0.007749691752994385, 0.936682224273, h };
Point(487) = { 0.0, 0.007651319758777841, 0.938613527829, h };
Point(488) = { 0.0, 0.007645925080453861, 0.940544831384, h };
Point(489) = { 0.0, 0.007729931753882502, 0.942476134939, h };
Point(490) = { 0.0, 0.00790032358298283, 0.944407438494, h };
Point(491) = { 0.0, 0.008148405139839974, 0.946338742049, h };
Point(492) = { 0.0, 0.008463277616792657, 0.948270045605, h };
Point(493) = { 0.0, 0.008830450094174231, 0.95020134916, h };
Point(494) = { 0.0, 0.009235072139562891, 0.952132652715, h };
Point(495) = { 0.0, 0.009660964508652874, 0.95406395627, h };
Point(496) = { 0.0, 0.01009182648424677, 0.955995259825, h };
Point(497) = { 0.0, 0.010511070722483458, 0.957926563381, h };
Point(498) = { 0.0, 0.010902222485678919, 0.959857866936, h };
Point(499) = { 0.0, 0.011248825577417652, 0.961789170491, h };
Point(500) = { 0.0, 0.011535982592290038, 0.963720474046, h };
Point(501) = { 0.0, 0.011749347736621353, 0.965651777601, h };
Point(502) = { 0.0, 0.011878727614749037, 0.967583081157, h };
Point(503) = { 0.0, 0.011916412561262238, 0.969514384712, h };
Point(504) = { 0.0, 0.011865789857659582, 0.971445688267, h };
Point(505) = { 0.0, 0.011731418108184014, 0.973376991822, h };
Point(506) = { 0.0, 0.011518259584031914, 0.975308295377, h };
Point(507) = { 0.0, 0.011234425778590912, 0.977239598933, h };
Point(508) = { 0.0, 0.010890430842893005, 0.979170902488, h };
Point(509) = { 0.0, 0.010498832643062008, 0.981102206043, h };
Point(510) = { 0.0, 0.010073469044130838, 0.983033509598, h };
Point(511) = { 0.0, 0.009628867156705688, 0.984964813153, h };
Point(512) = { 0.0, 0.009180128822210894, 0.986896116709, h };
Point(513) = { 0.0, 0.008742826612527822, 0.988827420264, h };
Point(514) = { 0.0, 0.008333041621775525, 0.990758723819, h };
Point(515) = { 0.0, 0.00796708886280094, 0.992690027374, h };
Point(516) = { 0.0, 0.007660935740185394, 0.99462133093, h };
Point(517) = { 0.0, 0.007429556536272841, 0.996552634485, h };
Point(518) = { 0.0, 0.007285585364039374, 0.99848393804, h };
Point(519) = { 0.0, 0.007238798656750315, 1.000415241595, h };
Point(520) = { 0.0, 0.007293229448608009, 1.00234654515, h };
Point(521) = { 0.0, 0.007437573551812989, 1.004277848706, h };
Point(522) = { 0.0, 0.007664498188220307, 1.006209152261, h };
Point(523) = { 0.0, 0.007963121464326081, 1.008140455816, h };
Point(524) = { 0.0, 0.00832030174866863, 1.010071759371, h };
Point(525) = { 0.0, 0.008721770435673926, 1.012003062926, h };
Point(526) = { 0.0, 0.00915291536901879, 1.013934366482, h };
Point(527) = { 0.0, 0.009599208272812045, 1.015865670037, h };
Point(528) = { 0.0, 0.010046362454167729, 1.017796973592, h };
Point(529) = { 0.0, 0.01048034563085186, 1.019728277147, h };
Point(530) = { 0.0, 0.01088754423386428, 1.021659580702, h };
Point(531) = { 0.0, 0.011254831387539603, 1.023590884258, h };
Point(532) = { 0.0, 0.011569840825570964, 1.025522187813, h };
Point(533) = { 0.0, 0.011821400123799597, 1.027453491368, h };
Point(534) = { 0.0, 0.012000090239448464, 1.029384794923, h };
Point(535) = { 0.0, 0.012098852391520087, 1.031316098478, h };
Point(536) = { 0.0, 0.012112369657105833, 1.033247402034, h };
Point(537) = { 0.0, 0.012044049595328591, 1.035178705589, h };
Point(538) = { 0.0, 0.011901568073678863, 1.037110009144, h };
Point(539) = { 0.0, 0.011689811281213137, 1.039041312699, h };
Point(540) = { 0.0, 0.011415039550177824, 1.040972616254, h };
Point(541) = { 0.0, 0.011086558953175393, 1.04290391981, h };
Point(542) = { 0.0, 0.01071415596508465, 1.044835223365, h };
Point(543) = { 0.0, 0.010308421014845876, 1.04676652692, h };
Point(544) = { 0.0, 0.009881173339525361, 1.048697830475, h };
Point(545) = { 0.0, 0.009444300986610529, 1.05062913403, h };
Point(546) = { 0.0, 0.00901032058520063, 1.052560437586, h };
Point(547) = { 0.0, 0.00859206314836827, 1.054491741141, h };
Point(548) = { 0.0, 0.00820283059755886, 1.056423044696, h };
Point(549) = { 0.0, 0.007856290065952573, 1.058354348251, h };
Point(550) = { 0.0, 0.007565396088393086, 1.060285651806, h };
Point(551) = { 0.0, 0.0073428348715257625, 1.062216955362, h };
Point(552) = { 0.0, 0.0071990348854329735, 1.064148258917, h };
Point(553) = { 0.0, 0.00714072404584101, 1.066079562472, h };
Point(554) = { 0.0, 0.0071693618552459, 1.068010866027, h };
Point(555) = { 0.0, 0.007278414766242375, 1.069942169582, h };
Point(556) = { 0.0, 0.007463405919751704, 1.071873473138, h };
Point(557) = { 0.0, 0.007714959863958729, 1.073804776693, h };
Point(558) = { 0.0, 0.008022802679768732, 1.075736080248, h };
Point(559) = { 0.0, 0.008375232608884842, 1.077667383803, h };
Point(560) = { 0.0, 0.008759889280791092, 1.079598687358, h };
Point(561) = { 0.0, 0.009165087263866743, 1.081529990914, h };
Point(562) = { 0.0, 0.009578969060105153, 1.083461294469, h };
Point(563) = { 0.0, 0.009990440219736255, 1.085392598024, h };
Point(564) = { 0.0, 0.010388766499979071, 1.087323901579, h };
Point(565) = { 0.0, 0.010763941725755208, 1.089255205134, h };
Point(566) = { 0.0, 0.011105921580436653, 1.09118650869, h };
Point(567) = { 0.0, 0.011406231308244674, 1.093117812245, h };
Point(568) = { 0.0, 0.011656552616306846, 1.0950491158, h };
Point(569) = { 0.0, 0.011849947397608003, 1.096980419355, h };
Point(570) = { 0.0, 0.011981342423019044, 1.09891172291, h };
Point(571) = { 0.0, 0.012046066920789968, 1.100843026466, h };
Point(572) = { 0.0, 0.0120440388265271, 1.102774330021, h };
Point(573) = { 0.0, 0.011979865750677453, 1.104705633576, h };
Point(574) = { 0.0, 0.011855761112789272, 1.106636937131, h };
Point(575) = { 0.0, 0.011674786159996581, 1.108568240686, h };
Point(576) = { 0.0, 0.011441804423925868, 1.110499544242, h };
Point(577) = { 0.0, 0.01116256034642109, 1.112430847797, h };
Point(578) = { 0.0, 0.01084376642656781, 1.114362151352, h };
Point(579) = { 0.0, 0.010492919240597079, 1.116293454907, h };
Point(580) = { 0.0, 0.01011808794258445, 1.118224758463, h };
Point(581) = { 0.0, 0.009728059339719345, 1.120156062018, h };
Point(582) = { 0.0, 0.00933204730616618, 1.122087365573, h };
Point(583) = { 0.0, 0.008939663017394822, 1.124018669128, h };
Point(584) = { 0.0, 0.00856095895809925, 1.125949972683, h };
Point(585) = { 0.0, 0.008206378081682559, 1.127881276239, h };
Point(586) = { 0.0, 0.007886901652595505, 1.129812579794, h };
Point(587) = { 0.0, 0.007613019395355129, 1.131743883349, h };
Point(588) = { 0.0, 0.007394793320575028, 1.133675186904, h };
Point(589) = { 0.0, 0.0072410071036886564, 1.135606490459, h };
Point(590) = { 0.0, 0.007158315520936381, 1.137537794015, h };
Point(591) = { 0.0, 0.007150147517884366, 1.13946909757, h };
Point(592) = { 0.0, 0.0072131810033433386, 1.141400401125, h };
Point(593) = { 0.0, 0.007343545031979717, 1.14333170468, h };
Point(594) = { 0.0, 0.007535712700733164, 1.145263008235, h };
Point(595) = { 0.0, 0.007782093332061864, 1.147194311791, h };
Point(596) = { 0.0, 0.008073771536615253, 1.149125615346, h };
Point(597) = { 0.0, 0.008401175955011117, 1.151056918901, h };
Point(598) = { 0.0, 0.008754585256007141, 1.152988222456, h };
Point(599) = { 0.0, 0.009124453812152726, 1.154919526011, h };
Point(600) = { 0.0, 0.009501587812591278, 1.156850829567, h };
Point(601) = { 0.0, 0.009877221220221883, 1.158782133122, h };
Point(602) = { 0.0, 0.010243039818817076, 1.160713436677, h };
Point(603) = { 0.0, 0.010591191513458015, 1.162644740232, h };
Point(604) = { 0.0, 0.010914308994922994, 1.164576043787, h };
Point(605) = { 0.0, 0.011205559776145456, 1.166507347343, h };
Point(606) = { 0.0, 0.011458729086214188, 1.168438650898, h };
Point(607) = { 0.0, 0.011668332955397076, 1.170369954453, h };
Point(608) = { 0.0, 0.01182975190813511, 1.172301258008, h };
Point(609) = { 0.0, 0.011939370337229221, 1.174232561563, h };
Point(610) = { 0.0, 0.01199470355697798, 1.176163865119, h };
Point(611) = { 0.0, 0.011995409195140833, 1.178095168674, h };
Point(612) = { 0.0, 0.011945060410191713, 1.180026472229, h };
Point(613) = { 0.0, 0.011844680397633362, 1.181957775784, h };
Point(614) = { 0.0, 0.011696431460797418, 1.183889079339, h };
Point(615) = { 0.0, 0.011503494356735817, 1.185820382895, h };
Point(616) = { 0.0, 0.011269696406145014, 1.18775168645, h };
Point(617) = { 0.0, 0.010999605264588758, 1.189682990005, h };
Point(618) = { 0.0, 0.010698194097013274, 1.19161429356, h };
Point(619) = { 0.0, 0.010371592861310987, 1.193545597115, h };
Point(620) = { 0.0, 0.010026074889777019, 1.195476900671, h };
Point(621) = { 0.0, 0.009668358670470913, 1.197408204226, h };
Point(622) = { 0.0, 0.009305597506485496, 1.199339507781, h };
Point(623) = { 0.0, 0.008945467184921597, 1.201270811336, h };
Point(624) = { 0.0, 0.008595972939886573, 1.203202114891, h };
Point(625) = { 0.0, 0.00826545420161449, 1.205133418447, h };
Point(626) = { 0.0, 0.007962515422016953, 1.207064722002, h };
Point(627) = { 0.0, 0.00769617458237971, 1.208996025557, h };
Point(628) = { 0.0, 0.007474725605806962, 1.210927329112, h };
Point(629) = { 0.0, 0.00730574613615, 1.212858632667, h };
Point(630) = { 0.0, 0.007195545129484816, 1.214789936223, h };
Point(631) = { 0.0, 0.007148617194972625, 1.216721239778, h };
Point(632) = { 0.0, 0.007183249786075748, 1.218652543333, h };
Point(633) = { 0.0, 0.007331047089888445, 1.220583846888, h };
Point(634) = { 0.0, 0.0075782046997229, 1.222515150443, h };
Point(635) = { 0.0, 0.007899722414946365, 1.224446453999, h };
Point(636) = { 0.0, 0.008263044630027904, 1.226377757554, h };
Point(637) = { 0.0, 0.008630925173821113, 1.228309061109, h };
Point(638) = { 0.0, 0.008965650927081658, 1.230240364664, h };
Point(639) = { 0.0, 0.009235349145113515, 1.232171668219, h };
Point(640) = { 0.0, 0.009421594888327478, 1.234102971775, h };
Point(641) = { 0.0, 0.00952481230710301, 1.23603427533, h };
Point(642) = { 0.0, 0.009563762014944271, 1.237965578885, h };
Point(643) = { 0.0, 0.0095691183, 1.23989688244, h };
Point(644) = { 0.0, 0.0095691183, 1.241828185995, h };
Point(645) = { 0.0, 0.0095691183, 1.243759489551, h };
Point(646) = { 0.0, 0.0095691183, 1.245690793106, h };
Point(647) = { 0.0, 0.0095691183, 1.247622096661, h };
Point(648) = { 0.0, 0.0095691183, 1.249553400216, h };
Point(649) = { 0.0, 0.0095691183, 1.251484703772, h };
Point(650) = { 0.0, 0.0095691183, 1.253416007327, h };
Point(651) = { 0.0, 0.0095691183, 1.255347310882, h };
Point(652) = { 0.0, 0.0095691183, 1.257278614437, h };
Point(653) = { 0.0, 0.0095691183, 1.259209917992, h };
Point(654) = { 0.0, 0.0095691183, 1.261141221548, h };
Point(655) = { 0.0, 0.0095691183, 1.263072525103, h };
Point(656) = { 0.0, 0.0095691183, 1.265003828658, h };
Point(657) = { 0.0, 0.009569118299999999, 1.266935132213, h };
Point(658) = { 0.0, 0.009569118299999999, 1.268866435768, h };
Point(659) = { 0.0, 0.009569118299999999, 1.270797739324, h };
Point(660) = { 0.0, 0.009551257442012686, 1.272729042879, h };
Point(661) = { 0.0, 0.009369496285138453, 1.274660346434, h };
Point(662) = { 0.0, 0.008979848047151096, 1.276591649989, h };
Point(663) = { 0.0, 0.008397988807604645, 1.278522953544, h };
Point(664) = { 0.0, 0.007781959734252155, 1.2804542571, h };
Point(665) = { 0.0, 0.007165930661218638, 1.282385560655, h };
Point(666) = { 0.0, 0.00654990158818512, 1.28431686421, h };
Point(667) = { 0.0, 0.005933872515151602, 1.286248167765, h };
Point(668) = { 0.0, 0.005355831801718512, 1.28817947132, h };
Point(669) = { 0.0, 0.004973537277597169, 1.290110774876, h };
Point(670) = { 0.0, 0.0047988971681196075, 1.292042078431, h };
Point(671) = { 0.0, 0.004784559149999999, 1.293973381986, h };
Point(672) = { 0.0, 0.004784559149999999, 1.295904685541, h };
Point(673) = { 0.0, 0.004784559149999999, 1.297835989096, h };
Point(674) = { 0.0, 0.004784559149999999, 1.299767292652, h };
Point(675) = { 0.0, 0.004784559149999999, 1.301698596207, h };
Point(676) = { 0.0, 0.00486253648795688, 1.303629899762, h };
Point(677) = { 0.0, 0.005139551833020507, 1.305561203317, h };
Point(678) = { 0.0, 0.005629197373642006, 1.307492506872, h };
Point(679) = { 0.0, 0.006243035512207538, 1.309423810428, h };
Point(680) = { 0.0, 0.006859064585241056, 1.311355113983, h };
Point(681) = { 0.0, 0.007475093658274574, 1.313286417538, h };
Point(682) = { 0.0, 0.008091122731308093, 1.315217721093, h };
Point(683) = { 0.0, 0.008706111206617064, 1.317149024648, h };
Point(684) = { 0.0, 0.00920243970057332, 1.319080328204, h };
Point(685) = { 0.0, 0.00948587946534246, 1.321011631759, h };
Point(686) = { 0.0, 0.009569118300000002, 1.322942935314, h };
Point(687) = { 0.0, 0.009569118300000002, 1.324874238869, h };
Point(688) = { 0.0, 0.009569118300000002, 1.326805542424, h };
Point(689) = { 0.0, 0.009569118300000002, 1.32873684598, h };
Point(690) = { 0.0, 0.0095691183, 1.330668149535, h };
Point(691) = { 0.0, 0.0095691183, 1.33259945309, h };
Point(692) = { 0.0, 0.0095691183, 1.334530756645, h };
Point(693) = { 0.0, 0.0095691183, 1.3364620602, h };
Point(694) = { 0.0, 0.0095691183, 1.338393363756, h };
Point(695) = { 0.0, 0.0095691183, 1.340324667311, h };
Point(696) = { 0.0, 0.0095691183, 1.342255970866, h };
Point(697) = { 0.0, 0.0095691183, 1.344187274421, h };
Point(698) = { 0.0, 0.0095691183, 1.346118577976, h };
Point(699) = { 0.0, 0.0095691183, 1.348049881532, h };
Point(700) = { 0.0, 0.0095691183, 1.349981185087, h };
Point(701) = { 0.0, 0.0095691183, 1.351912488642, h };
Point(702) = { 0.0, 0.0095691183, 1.353843792197, h };
Point(703) = { 0.0, 0.009600708060808786, 1.355775095752, h };
Point(704) = { 0.0, 0.009651097705211255, 1.357706399308, h };
Point(705) = { 0.0, 0.009683399509097539, 1.359637702863, h };
Point(706) = { 0.0, 0.00970135953964093, 1.361569006418, h };
Point(707) = { 0.0, 0.009708723863983299, 1.363500309973, h };
Point(708) = { 0.0, 0.009709238549266513, 1.365431613528, h };
Point(709) = { 0.0, 0.009706649662630936, 1.367362917084, h };
Point(710) = { 0.0, 0.009704703271222739, 1.369294220639, h };
Point(711) = { 0.0, 0.009707145442182931, 1.371225524194, h };
Point(712) = { 0.0, 0.009717722242653382, 1.373156827749, h };
Point(713) = { 0.0, 0.009740179739775949, 1.375088131304, h };
Point(714) = { 0.0, 0.00977826400071692, 1.37701943486, h };
Point(715) = { 0.0, 0.009835721092580341, 1.378950738415, h };
Point(716) = { 0.0, 0.009916297082523428, 1.38088204197, h };
Point(717) = { 0.0, 0.010023738037688048, 1.382813345525, h };
Point(718) = { 0.0, 0.010161790025296128, 1.384744649081, h };
Point(719) = { 0.0, 0.010334199112348182, 1.386675952636, h };
Point(720) = { 0.0, 0.010544711366049316, 1.388607256191, h };
Point(721) = { 0.0, 0.010797072853541392, 1.390538559746, h };
Point(722) = { 0.0, 0.01109501473740358, 1.392469863301, h };
Point(723) = { 0.0, 0.011441903465768401, 1.394401166857, h };
Point(724) = { 0.0, 0.011840728167580007, 1.396332470412, h };
Point(725) = { 0.0, 0.012294460546032638, 1.398263773967, h };
Point(726) = { 0.0, 0.012806072304153853, 1.400195077522, h };
Point(727) = { 0.0, 0.013378535144971213, 1.402126381077, h };
Point(728) = { 0.0, 0.014014820771858767, 1.404057684633, h };
Point(729) = { 0.0, 0.014717900887186447, 1.405988988188, h };
Point(730) = { 0.0, 0.015490747194294493, 1.407920291743, h };
Point(731) = { 0.0, 0.016336331396210456, 1.409851595298, h };
Point(732) = { 0.0, 0.017271822730798504, 1.411782898853, h };
Point(733) = { 0.0, 0.018372679236365128, 1.413714202409, h };
Point(734) = { 0.0, 0.01972931564899302, 1.415645505964, h };
Point(735) = { 0.0, 0.021432146715922883, 1.417576809519, h };
Point(736) = { 0.0, 0.023571587183876027, 1.419508113074, h };
Point(737) = { 0.0, 0.026238051799573746, 1.421439416629, h };
Point(738) = { 0.0, 0.029521955311613165, 1.423370720185, h };
Point(739) = { 0.0, 0.0335137124633539, 1.42530202374, h };
Point(740) = { 0.0, 0.038303738003049925, 1.427233327295, h };
Point(741) = { 0.0, 0.04398244667742258, 1.42916463085, h };
Point(742) = { 0.0, 0.05064025323319314, 1.431095934405, h };
Point(743) = { 0.0, 0.05836757242137654, 1.433027237961, h };
Point(744) = { 0.0, 0.06725481898073088, 1.434958541516, h };
Point(745) = { 0.0, 0.07739240766169384, 1.436889845071, h };
Point(746) = { 0.0, 0.08887075321098677, 1.438821148626, h };
Point(747) = { 0.0, 0.10178027037533098, 1.440752452181, h };
Point(748) = { 0.0, 0.11621137390932948, 1.442683755737, h };
Point(749) = { 0.0, 0.13225447854479816, 1.444615059292, h };
Point(750) = { 0.0, 0.14999999903552888, 1.446546362847, h };

Spline(1) = { 1:750 }; 

Recursive Delete { Point{ 2:749 }; }
// Points making up the sweep face:
Point(751) = { -0.0093, 0.1593, 0.0, h };
Point(752) = { 0.0093, 0.1593, 0.0, h };
Point(753) = { 0.0, 0.1593, 0.0, h };

Line(2) = { 751, 752 };
Circle(3) = { 752, 753, 751};

Curve Loop(1) = { 2, 3 };
Plane Surface(1) = { 1 };
Rotate {{1, 0, 0}, { 0.0, 0.15, 0.0}, 1.4623847157580068} {Surface { 1 }; }

Recursive Delete { Point{ 753 }; }
Wire(2) = { 1 };
Extrude { Surface{ 1 }; } Using Wire { 2 }
Recursive Delete { Surface { 1 }; }
Recursive Delete { Curve{ 1 }; }
Extrude {0, 1, 0} { Surface{ 2 }; }
Extrude {0, 1, 0} { Surface{ 5 }; }

// Delete redundant volumes, surfaces, lines to form a new volume later
Delete { Volume{ 1, 2, 3 }; }
Delete { Surface{ 2, 3, 5, 6, 9 }; }
Delete { Curve{ 4, 8 }; }
Line(18) = { 763, 761 };
Line(19) = { 760, 762 };

Curve Loop(13) = {19, 16, 18, -12};
Plane Surface(12) = {13};
Curve Loop(14) = {18, -11, 7, 15};
Plane Surface(13) = {14};
Curve Loop(15) = {19, -14, -6, 10};
Plane Surface(14) = {15};
Surface Loop(4) = {13, 12, 14, 10, 11, 4, 7, 8};
Volume(1) = {4};
Delete { Surface{ 7, 10}; }
Box(2) = { -0.5, 0.05, -0.25, 1, 2, 1.946546362847 };

BooleanDifference{ Volume{1}; Delete; }{ Volume{2}; Delete; }

s() = Surface "*";
Physical Surface(2) = { s() };
Rotate {{0, 0, 1}, {0, 0, 0}, 3.141592653589793} {Volume { 1 }; }

ReverseMesh Surface { s() };

Transfinite Surface { 2, 3 };
